<?xml version="1.0" encoding="utf-8"?>
<svg width="293px" height="13px" viewBox="0 0 293 13" version="1.1" xmlns:xlink="http://www.w3.org/1999/xlink" xmlns="http://www.w3.org/2000/svg">
  <g id="Group-23">
    <path d="M0 0L0 3L0.141858 3L274.032 3L274.172 3L274.172 0L0 0Z" transform="translate(8.443359 0)" id="Fill-1" fill="#8FD156" fill-rule="evenodd" stroke="none" />
    <path d="M0 0L0 1.47719L0 1.50281L0 2.98L2.98013 2.98L2.98013 0L0 0Z" transform="translate(289.56934 9.926025)" id="Fill-2" fill="#8FD156" fill-rule="evenodd" stroke="none" />
    <path d="M0 2.97778L2.98013 2.97778L2.98013 0L0 0L0 2.97778Z" transform="translate(282.61572 1.9851074)" id="Fill-3" fill="#8FD156" fill-rule="evenodd" stroke="none" />
    <path d="M0 2.97778L2.98013 2.97778L2.98013 0L0 0L0 2.97778Z" transform="translate(284.60205 3.970459)" id="Fill-4" fill="#8FD156" fill-rule="evenodd" stroke="none" />
    <path d="M0 2.97778L2.98013 2.97778L2.98013 0L0 0L0 2.97778Z" transform="translate(286.58887 6.948242)" id="Fill-5" fill="#8FD156" fill-rule="evenodd" stroke="none" />
    <path d="M0 2.97778L2.98013 2.97778L2.98013 0L0 0L0 2.97778Z" transform="translate(6.456543 1.9851074)" id="Fill-7" fill="#8FD156" fill-rule="evenodd" stroke="none" />
    <path d="M0 2.97778L2.98013 2.97778L2.98013 0L0 0L0 2.97778Z" transform="translate(4.4697266 3.970459)" id="Fill-8" fill="#8FD156" fill-rule="evenodd" stroke="none" />
    <path d="M0 2.97778L2.98013 2.97778L2.98013 0L0 0L0 2.97778Z" transform="translate(2.4829102 6.948242)" id="Fill-9" fill="#8FD156" fill-rule="evenodd" stroke="none" />
    <path d="M0 2.98013L2.98 2.98013L2.98 -1.29994e-15L0 -1.30277e-15L0 2.98013Z" transform="matrix(-4.371139E-08 1 -1 -4.371139E-08 2.9799805 9.4296875)" id="Fill-10" fill="#8FD156" fill-rule="evenodd" stroke="none" />
  </g>
</svg>