<?xml version="1.0" encoding="utf-8"?>
<svg width="53px" height="51px" viewBox="0 0 53 51" version="1.1" xmlns:xlink="http://www.w3.org/1999/xlink" xmlns="http://www.w3.org/2000/svg">
  <g id="LINE_">
    <path d="M52.5368 12.3319C51.1468 5.10933 44.7717 0.0094596 37.1649 0.00496236C29.9726 0.000465123 22.7779 -0.00628073 15.5855 0.0139568C14.6542 0.0162055 13.7089 0.083664 12.7938 0.247813C5.29181 1.59024 -0.000582093 7.76495 0.00174628 15.1314C0.00174628 22.0055 -0.00523884 28.8795 0.0087314 35.7535C0.0110598 36.6012 0.0832393 37.4535 0.208971 38.2899C1.30098 45.4833 7.81809 50.9587 15.355 50.9834C22.7174 51.0081 30.0797 51.0059 37.442 50.9722C38.534 50.9677 39.6516 50.8327 40.7157 50.5921C47.9266 48.9596 52.779 43.021 52.7953 35.8682C52.8023 32.4121 52.7953 28.9559 52.7953 25.5021C52.7953 22.0099 52.8116 18.5178 52.7836 15.0257C52.7766 14.1285 52.7091 13.2156 52.5368 12.3319Z" transform="matrix(1 0 0 1 0 7.7093887E-13)" id="Line_D" fill="#FFFFFF" fill-rule="evenodd" stroke="none" />
    <path d="M2.19163 4.91938C2.19163 6.93665 2.19951 8.7697 2.18966 10.605C2.18375 11.4943 1.7503 12.0128 1.06859 11.9878C0.447957 11.965 0.00661975 11.3965 0.00267924 10.5641C-0.00520178 8.91298 0.00661975 7.25959 0.00859 5.60848C0.0105603 4.28486 0.0105603 2.96352 0.0125305 1.64218C0.0145008 0.768863 0.248961 0.263978 0.737584 0.0729404C1.27349 -0.136291 1.72468 0.102506 2.17981 0.816622C3.41713 2.75884 4.65445 4.69878 5.89374 6.63644C5.96467 6.74788 6.05136 6.8434 6.22671 7.07083L6.22671 4.85798C6.22671 3.67991 6.22277 2.50412 6.22868 1.32378C6.23066 0.555083 6.68578 0.000164158 7.30444 0.00471267C7.92902 0.00698693 8.39005 0.543711 8.39202 1.32606C8.40188 4.42587 8.40188 7.52568 8.39597 10.6232C8.394 11.3169 8.09649 11.8217 7.61772 11.9559C7.08969 12.106 6.66411 11.8627 6.35478 11.3783C5.05835 9.361 3.76981 7.33464 2.47929 5.31283C2.42018 5.21958 2.35122 5.13544 2.19163 4.91938" transform="translate(24.6 19.8)" id="Fill-6" fill="#6CB13C" fill-rule="evenodd" stroke="none" />
    <path d="M2.52528 2.50786L2.52528 4.76045C3.6669 4.76045 4.78601 4.75817 5.90511 4.76272C6.414 4.765 6.8058 4.9584 7.04223 5.44532C7.26065 5.90039 7.27866 6.38049 6.92739 6.70586C6.62566 6.98117 6.18432 7.22236 5.78802 7.24966C4.7162 7.32248 3.63313 7.27469 2.51852 7.27469L2.51852 9.4886C3.61962 9.4886 4.7162 9.4795 5.81054 9.49087C6.63242 9.4977 7.17959 10.0119 7.18634 10.7514C7.19535 11.4363 6.69772 11.9869 6.01545 11.9915C4.41898 12.0028 2.82476 12.0028 1.22829 11.9915C0.518996 11.9869 0.0123589 11.5159 0.0078555 10.7992C-0.00565482 7.59552 -0.00115138 4.39184 0.0168624 1.18817C0.0191141 0.57155 0.413165 0.0732512 1.01663 0.0527732C2.70992 -0.00411022 4.40547 -0.0200376 6.09876 0.0300198C6.79229 0.0504979 7.19084 0.626158 7.17733 1.29283C7.16608 1.93903 6.71348 2.45098 6.01545 2.49421C5.26112 2.54199 4.50229 2.50786 3.74571 2.50786L2.52528 2.50786Z" transform="translate(34.8 19.8)" id="Fill-8" fill="#6CB13C" fill-rule="evenodd" stroke="none" />
    <path d="M2.4837 9.49035C3.67455 9.49035 4.7914 9.47894 5.906 9.49491C6.53394 9.50175 7.06097 9.958 7.17983 10.5397C7.28523 11.0621 6.96902 11.6575 6.43078 11.8925C6.25137 11.97 6.03832 11.9928 5.84096 11.9928C4.35184 12.002 2.86496 12.002 1.37807 11.9951C0.534834 11.9928 0.0145379 11.5366 0.00780992 10.6789C-0.00788868 7.54675 0.00108195 4.4192 0.0257512 1.28938C0.0324791 0.474983 0.563989 -0.0177598 1.28612 0.000489915C1.99929 0.0187396 2.45231 0.520607 2.45903 1.36694C2.47698 3.8124 2.47698 6.25786 2.4837 8.70333C2.4837 8.94514 2.4837 9.18694 2.4837 9.49035" transform="translate(11.4 19.8)" id="Fill-10" fill="#6CB13C" fill-rule="evenodd" stroke="none" />
    <path d="M2.99757 6.01612C2.99757 7.5275 3.00303 9.03888 2.99757 10.5503C2.98938 11.4658 2.43246 12 1.51517 12C0.603337 11.9977 0 11.4475 0 10.5571C0 7.49097 0.0163802 4.42711 0.0409505 1.36326C0.0464105 0.488846 0.622447 -0.0134252 1.54247 0.000273091C2.41608 0.0139714 2.95935 0.520809 2.96481 1.35641C2.973 2.91117 2.96754 4.46364 2.96754 6.01612L2.99757 6.01612Z" transform="translate(19.8 19.8)" id="Fill-12" fill="#6CB13C" fill-rule="evenodd" stroke="none" />
  </g>
</svg>