<?xml version="1.0" encoding="utf-8"?>
<svg width="23px" height="25px" viewBox="0 0 23 25" version="1.1" xmlns:xlink="http://www.w3.org/1999/xlink" xmlns="http://www.w3.org/2000/svg">
  <defs>
    <path d="M0 0L23 0L23 25L0 25L0 0Z" id="path_1" />
    <clipPath id="mask_1">
      <use xlink:href="#path_1" />
    </clipPath>
  </defs>
  <g id="Group-3">
    <path d="M0 0L23 0L23 25L0 25L0 0Z" id="Clip-2" fill="none" fill-rule="evenodd" stroke="none" />
    <g clip-path="url(#mask_1)">
      <path d="M18.1345 23.9113C16.8019 23.9113 15.7172 22.8445 15.7172 21.5332C15.7172 20.2224 16.8019 19.1555 18.1345 19.1555C19.4676 19.1555 20.5523 20.2224 20.5523 21.5332C20.5528 22.8445 19.4682 23.9113 18.1345 23.9113M3.98118 16.5302C2.39679 16.5302 1.10736 15.2619 1.10736 13.7035C1.10736 12.1451 2.39679 10.8763 3.98118 10.8763C5.56558 10.8763 6.85501 12.1446 6.85501 13.7035C6.85501 15.2625 5.56558 16.5302 3.98118 16.5302M18.1345 1.08866C20.207 1.08866 21.8932 2.74723 21.8932 4.78575C21.8932 6.82427 20.207 8.48284 18.1345 8.48284C16.0625 8.48284 14.3763 6.82427 14.3763 4.78575C14.3763 2.74723 16.0625 1.08866 18.1345 1.08866M18.1345 18.0669C16.907 18.0669 15.8257 18.6874 15.1942 19.6264L7.49419 15.5401C7.79192 14.9919 7.96181 14.3671 7.96181 13.7035C7.96181 13.04 7.79192 12.4156 7.49474 11.8675L14.1876 7.57272C15.0714 8.78059 16.5086 9.5715 18.1345 9.5715C20.8174 9.5715 23 7.42466 23 4.78575C23 2.14684 20.8174 0 18.1345 0C15.451 0 13.2695 2.14684 13.2695 4.78575C13.2695 5.43623 13.4034 6.05622 13.6431 6.62178L6.84117 10.9862C6.11677 10.2486 5.10349 9.7876 3.98063 9.7876C1.78528 9.7876 0 11.5442 0 13.7035C0 15.8623 1.78583 17.6189 3.98063 17.6189C5.09961 17.6189 6.11068 17.1611 6.83453 16.4268L14.7377 20.6209C14.6569 20.9121 14.6098 21.2169 14.6098 21.5332C14.6098 23.4454 16.1904 25 18.1339 25C20.0775 25 21.6586 23.4454 21.6586 21.5332C21.6586 19.6215 20.078 18.0669 18.1345 18.0669" id="Fill-1" fill="#FFFFFF" fill-rule="evenodd" stroke="none" />
    </g>
  </g>
</svg>