<?xml version="1.0" encoding="utf-8"?>
<svg width="109px" height="31px" viewBox="0 0 109 31" version="1.1" xmlns:xlink="http://www.w3.org/1999/xlink" xmlns="http://www.w3.org/2000/svg">
  <g id="Group-82">
    <g id="Group" transform="matrix(-1 0 0 1 108.33203 0)">
      <path d="M6.66612 0L0 0L0 3L10 3L10 0L6.66612 0Z" transform="matrix(-4.371139E-08 -1 1 -4.371139E-08 17 21)" id="Fill-1" fill="#FF8000" fill-rule="evenodd" stroke="none" />
      <path d="M20.572 10.5005L20.572 6.99978L17.1432 6.99978L17.1432 3.49946L13.714 3.49946L13.714 0L10.286 0L10.286 3.49946L6.8572 3.49946L6.8572 6.99978L3.42797 6.99978L3.42797 10.5005L0 10.5005L0 14L24 14L24 10.5005L20.572 10.5005Z" transform="matrix(-4.371139E-08 -1 1 -4.371139E-08 3 28)" id="Fill-2" fill="#FFBB00" fill-rule="evenodd" stroke="none" />
      <path d="M3.33388 0L0 0L0 7L10 7L10 0L3.33388 0Z" transform="matrix(-4.371139E-08 -1 1 -4.371139E-08 20 21)" id="Fill-3" fill="#FFBB00" fill-rule="evenodd" stroke="none" />
      <path d="M0 3L3 3L3 0L0 0L0 3Z" transform="matrix(-4.371139E-08 -1 1 -4.371139E-08 14 3)" id="Fill-4" fill="#202126" fill-rule="evenodd" stroke="none" />
      <path d="M0 3L3 3L3 0L0 0L0 3Z" transform="matrix(-4.371139E-08 -1 1 -4.371139E-08 10 7)" id="Fill-5" fill="#202126" fill-rule="evenodd" stroke="none" />
      <path d="M0 0L0 10L3.50043 10L3.50043 3.33388L7 3.33388L7 0L0 0Z" transform="matrix(-4.371139E-08 -1 1 -4.371139E-08 17 11)" id="Fill-6" fill="#202126" fill-rule="evenodd" stroke="none" />
      <path d="M0 3L3 3L3 0L0 0L0 3Z" transform="matrix(-4.371139E-08 -1 1 -4.371139E-08 7 10)" id="Fill-7" fill="#202126" fill-rule="evenodd" stroke="none" />
      <path d="M0 3L3 3L3 0L0 0L0 3Z" transform="matrix(-4.371139E-08 -1 1 -4.371139E-08 4 14)" id="Fill-8" fill="#202126" fill-rule="evenodd" stroke="none" />
      <path d="M3.33388 0L0 0L0 3L10 3L10 0L3.33388 0Z" transform="matrix(-4.371139E-08 -1 1 -4.371139E-08 27 21)" id="Fill-9" fill="#202126" fill-rule="evenodd" stroke="none" />
      <path d="M0 3L3 3L3 0L0 0L0 3Z" transform="matrix(-4.371139E-08 -1 1 -4.371139E-08 0 17)" id="Fill-10" fill="#202126" fill-rule="evenodd" stroke="none" />
      <path d="M0 3L3 3L3 0L0 0L0 3Z" transform="matrix(-4.371139E-08 -1 1 -4.371139E-08 4 21)" id="Fill-11" fill="#202126" fill-rule="evenodd" stroke="none" />
      <path d="M7 3.33388L7 0L0 0L0 3.33388L3.49914 3.33388L3.49914 10L7 10L7 3.33388Z" transform="matrix(-4.371139E-08 -1 1 -4.371139E-08 17 28)" id="Fill-12" fill="#202126" fill-rule="evenodd" stroke="none" />
      <path d="M0 3L3 3L3 0L0 0L0 3Z" transform="matrix(-4.371139E-08 -1 1 -4.371139E-08 7 24)" id="Fill-13" fill="#202126" fill-rule="evenodd" stroke="none" />
      <path d="M0 3L3 3L3 0L0 0L0 3Z" transform="matrix(-4.371139E-08 -1 1 -4.371139E-08 10 27)" id="Fill-14" fill="#202126" fill-rule="evenodd" stroke="none" />
      <path d="M0 3L3 3L3 0L0 0L0 3Z" transform="matrix(-4.371139E-08 -1 1 -4.371139E-08 14 31)" id="Fill-15" fill="#202126" fill-rule="evenodd" stroke="none" />
    </g>
    <path d="M63.5877 3.87598L62.5896 3.87598L62.5896 5.86523L59.3972 5.86523L59.3972 7.02734L62.8699 7.02734L62.8699 7.71094L59.3972 7.71094L59.3972 8.85938L63.3484 8.85938L63.3484 9.5498L59.3972 9.5498L59.3972 10.9375L58.7 10.9375L58.7 9.5498L55.2273 9.5498L55.2273 8.85938L58.7 8.85938L58.7 7.71094L55.7605 7.71094L55.7605 7.02734L58.7 7.02734L58.7 5.86523L56.0271 5.86523L56.0271 5.16797L58.7 5.16797L58.7 3.87598L55.241 3.87598L55.241 3.16504L58.7 3.16504L58.7 1.94824L56.0408 1.94824L56.0408 1.25781L58.7 1.25781L58.7 0.211914L59.3972 0.211914L59.3972 1.25781L62.5896 1.25781L62.5896 3.16504L63.5877 3.16504L63.5877 3.87598ZM61.8787 3.16504L61.8787 1.97559L59.3972 1.97559L59.3972 3.16504L61.8787 3.16504ZM61.8787 5.16797L61.8787 3.87598L59.3972 3.87598L59.3972 5.16797L61.8787 5.16797ZM63.697 11.4639L63.5261 12.209C62.683 12.2318 61.881 12.2432 61.1199 12.2432C59.4747 12.2432 58.3023 12.201 57.6028 12.1167C56.9033 12.0324 56.2128 11.8706 55.5315 11.6313C54.8502 11.3921 54.2452 11.0013 53.7166 10.459C53.0512 11.2975 52.42 11.9515 51.823 12.4209L51.324 11.8467C52.0213 11.2998 52.6411 10.6549 53.1834 9.91211C52.6638 9.21029 52.2263 8.29199 51.8709 7.15723L52.5271 6.89063C52.7914 7.87956 53.1401 8.65885 53.573 9.22852C54.0652 8.20768 54.3409 7.01139 54.4002 5.63965L51.8093 5.63965L51.8093 4.9834C52.6752 3.89421 53.5388 2.63867 54.4002 1.2168L51.5291 1.2168L51.5291 0.519531L55.1863 0.519531L55.1863 1.2168C54.3341 2.65234 53.5161 3.88965 52.7322 4.92871L55.159 4.92871C55.0678 6.98861 54.7078 8.6224 54.0789 9.83008C54.5209 10.2813 55.0188 10.6344 55.5725 10.8896C56.1262 11.1449 56.7176 11.3123 57.3465 11.3921C57.9754 11.4718 59.2149 11.5117 61.0652 11.5117C61.9858 11.5117 62.8631 11.4958 63.697 11.4639L63.697 11.4639ZM38.648 7.9502L37.9917 8.18945C37.9689 8.0345 37.9256 7.8431 37.8618 7.61523C36.7635 7.95703 35.6014 8.25553 34.3755 8.51074L34.1841 7.84082C35.0545 6.86556 35.843 5.77409 36.5493 4.56641C35.7518 4.71224 35.0363 4.81022 34.4028 4.86035L34.2525 4.23145C35.0272 3.12402 35.7359 1.72266 36.3784 0.0273438L37.021 0.334961C36.3648 1.94369 35.7313 3.19466 35.1206 4.08789C35.6721 4.0332 36.2827 3.94434 36.9527 3.82129C37.299 3.25163 37.6112 2.64551 37.8892 2.00293L38.5044 2.32422C37.5656 4.29297 36.4422 6.07031 35.1343 7.65625C35.9728 7.47852 36.8182 7.25521 37.6704 6.98633C37.6066 6.69466 37.4881 6.3597 37.315 5.98145L37.9439 5.76953C38.2082 6.39388 38.4429 7.12077 38.648 7.9502L38.648 7.9502ZM46.2905 1.51074L42.6812 1.51074L42.6812 2.25586L45.7847 2.25586L45.7847 2.83008L38.9829 2.83008L38.9829 2.25586L41.9907 2.25586L41.9907 1.51074L38.4361 1.51074L38.4361 0.922852L41.9907 0.922852L41.9907 0.157227L42.6812 0.157227L42.6812 0.922852L46.2905 0.922852L46.2905 1.51074ZM45.9282 5.40723L38.7027 5.40723L38.7027 3.47266L45.9282 3.47266L45.9282 5.40723ZM45.2378 5.04688L45.2378 4.04688L43.7271 4.04688L43.7271 5.04688L45.2378 5.04688ZM43.0708 5.04688L43.0708 4.04688L41.5191 4.04688L41.5191 5.04688L43.0708 5.04688ZM40.8423 5.04688L40.8423 4.04688L39.3589 4.04688L39.3589 5.04688L40.8423 5.04688ZM45.3267 10.418L41.2798 10.418L41.6558 10.876C40.6213 11.5368 39.5959 12.0472 38.5796 12.4072L38.1284 11.8877C39.131 11.5186 40.1291 11.0286 41.1226 10.418L39.3589 10.418L39.3589 6.03613L45.3267 6.03613L45.3267 10.418ZM44.6499 7.6377L44.6499 6.6377L40.0493 6.6377L40.0493 7.6377L44.6499 7.6377ZM44.6499 8.86816L44.6499 7.86816L40.0493 7.86816L40.0493 8.86816L44.6499 8.86816ZM44.6499 10.1396L44.6499 9.13965L40.0493 9.13965L40.0493 10.1396L44.6499 10.1396ZM38.6206 10.7256L37.9917 10.9375C37.8869 10.2995 37.675 9.59766 37.356 8.83203L37.9439 8.62695C38.2765 9.32878 38.5021 10.0283 38.6206 10.7256L38.6206 10.7256ZM35.4829 9.08496C35.3416 10.1331 35.0887 11.2292 34.7241 12.373L34.0679 12.1543C34.4006 11.2155 34.6535 10.1423 34.8267 8.93457L35.4829 9.08496ZM37.0571 11.8877L36.3272 12.0518C36.3418 11.1676 36.2518 10.1924 36.0571 9.12598L36.7141 9.00293C36.9185 10.0465 37.0328 11.0081 37.0571 11.8877L37.0571 11.8877ZM46.3179 11.8604L45.9282 12.4346C45.0943 11.9925 44.1418 11.6006 43.0708 11.2588L43.4741 10.7256C44.4676 11.0081 45.4155 11.3864 46.3179 11.8604L46.3179 11.8604ZM28.6585 3.71191L16.9006 3.71191L16.9006 3.02148L20.4553 3.02148C20.3733 2.75716 20.1864 2.34701 19.8948 1.79102L17.5569 1.79102L17.5569 1.10742L22.3489 1.10742C22.2213 0.870444 22.0094 0.603842 21.7131 0.307617L22.4309 0C22.7408 0.369141 23.0165 0.738281 23.2581 1.10742L28.0432 1.10742L28.0432 1.79102L25.7463 1.79102C25.5322 2.26953 25.3225 2.67969 25.1174 3.02148L28.6585 3.02148L28.6585 3.71191ZM24.967 1.79102L20.6946 1.79102C20.8632 2.11003 21.0409 2.52018 21.2278 3.02148L24.2903 3.02148C24.4999 2.70247 24.7255 2.29232 24.967 1.79102L24.967 1.79102ZM27.1067 8.6543L18.3977 8.6543L18.3977 4.64844L27.1067 4.64844L27.1067 8.6543ZM26.3753 6.31836L26.3753 5.31836L19.1292 5.31836L19.1292 6.31836L26.3753 6.31836ZM26.3753 7.96387L26.3753 6.95898L19.1292 6.95898L19.1292 7.96387L26.3753 7.96387ZM23.9417 10.418L23.3401 10.7803C23.1213 10.3382 22.7818 9.83008 22.3215 9.25586L22.9094 8.94824C23.3378 9.37663 23.6819 9.86654 23.9417 10.418L23.9417 10.418ZM28.843 11.4775L28.2004 11.9014C27.8997 11.1768 27.3528 10.3451 26.5598 9.40625L27.1614 9.04395C27.7584 9.7321 28.3189 10.5433 28.843 11.4775L28.843 11.4775ZM18.8489 9.60449C18.3932 10.5068 17.8827 11.2497 17.3176 11.833L16.7297 11.3682C17.3587 10.721 17.86 10.0169 18.2337 9.25586L18.8489 9.60449ZM26.0403 10.4316C25.9947 11.0833 25.8876 11.5334 25.719 11.7817C25.5504 12.0301 25.3601 12.1839 25.1482 12.2432C24.9363 12.3024 24.4612 12.332 23.7229 12.332C23.1031 12.332 22.4902 12.3218 21.884 12.3013C21.2779 12.2808 20.9099 12.2409 20.78 12.1816C20.6502 12.1224 20.5317 12.0187 20.4246 11.8706C20.3175 11.7225 20.2639 11.5413 20.2639 11.3271L20.2639 9.29688L20.9885 9.29688L20.9885 11.2725C20.9885 11.4274 21.0717 11.5334 21.238 11.5903C21.4044 11.6473 22.1028 11.6758 23.3333 11.6758C24.1217 11.6758 24.6059 11.6598 24.7859 11.6279C24.9659 11.596 25.0969 11.4525 25.179 11.1973C25.261 10.9421 25.302 10.6071 25.302 10.1924L26.0403 10.4316ZM10.8486 11.3135C10.8486 11.7738 10.6868 12.07 10.3633 12.2021C10.1035 12.2751 9.76969 12.3172 9.36182 12.3286C8.95394 12.34 8.41732 12.3457 7.75195 12.3457L7.45801 11.6074C7.7041 11.6257 8.46973 11.6348 9.75488 11.6348C10.0055 11.6348 10.1309 11.514 10.1309 11.2725L10.1309 1.16211L0.710937 1.16211L0.710937 12.373L0 12.373L0 0.464844L10.8486 0.464844L10.8486 11.3135ZM8.95508 3.88477L1.90039 3.88477L1.90039 2.88477L8.95508 2.88477L8.95508 3.88477ZM8.16211 9.50879L2.68652 9.50879L2.68652 5.35938L8.16211 5.35938L8.16211 9.50879ZM7.40332 8.76367L7.40332 6.07715L3.44531 6.07715L3.44531 8.76367L7.40332 8.76367Z" transform="translate(0 9.393921)" id="同意續建" fill="#FFFFFF" stroke="none" />
  </g>
</svg>