<?xml version="1.0" encoding="utf-8"?>
<svg width="124px" height="30px" viewBox="0 0 124 30" version="1.1" xmlns:xlink="http://www.w3.org/1999/xlink" xmlns="http://www.w3.org/2000/svg">
  <g id="Group-81">
    <path d="M81.8076 3.87598L80.8096 3.87598L80.8096 5.86523L77.6172 5.86523L77.6172 7.02734L81.0898 7.02734L81.0898 7.71094L77.6172 7.71094L77.6172 8.85938L81.5684 8.85938L81.5684 9.5498L77.6172 9.5498L77.6172 10.9375L76.9199 10.9375L76.9199 9.5498L73.4473 9.5498L73.4473 8.85938L76.9199 8.85938L76.9199 7.71094L73.9805 7.71094L73.9805 7.02734L76.9199 7.02734L76.9199 5.86523L74.2471 5.86523L74.2471 5.16797L76.9199 5.16797L76.9199 3.87598L73.4609 3.87598L73.4609 3.16504L76.9199 3.16504L76.9199 1.94824L74.2607 1.94824L74.2607 1.25781L76.9199 1.25781L76.9199 0.211914L77.6172 0.211914L77.6172 1.25781L80.8096 1.25781L80.8096 3.16504L81.8076 3.16504L81.8076 3.87598ZM80.0986 3.16504L80.0986 1.97559L77.6172 1.97559L77.6172 3.16504L80.0986 3.16504ZM80.0986 5.16797L80.0986 3.87598L77.6172 3.87598L77.6172 5.16797L80.0986 5.16797ZM81.917 11.4639L81.7461 12.209C80.903 12.2318 80.1009 12.2432 79.3398 12.2432C77.6947 12.2432 76.5223 12.201 75.8228 12.1167C75.1232 12.0324 74.4328 11.8706 73.7515 11.6313C73.0702 11.3921 72.4652 11.0013 71.9365 10.459C71.2712 11.2975 70.64 11.9515 70.043 12.4209L69.5439 11.8467C70.2412 11.2998 70.861 10.6549 71.4033 9.91211C70.8838 9.21029 70.4463 8.29199 70.0908 7.15723L70.7471 6.89063C71.0114 7.87956 71.36 8.65885 71.793 9.22852C72.2852 8.20768 72.5609 7.01139 72.6201 5.63965L70.0293 5.63965L70.0293 4.9834C70.8952 3.89421 71.7588 2.63867 72.6201 1.2168L69.749 1.2168L69.749 0.519531L73.4063 0.519531L73.4063 1.2168C72.554 2.65234 71.736 3.88965 70.9521 4.92871L73.3789 4.92871C73.2878 6.98861 72.9277 8.6224 72.2988 9.83008C72.7409 10.2813 73.2388 10.6344 73.7925 10.8896C74.3462 11.1449 74.9375 11.3123 75.5664 11.3921C76.1953 11.4718 77.4349 11.5117 79.2852 11.5117C80.2057 11.5117 81.083 11.4958 81.917 11.4639L81.917 11.4639ZM56.8679 7.9502L56.2117 8.18945C56.1889 8.0345 56.1456 7.8431 56.0818 7.61523C54.9835 7.95703 53.8214 8.25553 52.5955 8.51074L52.4041 7.84082C53.2745 6.86556 54.0629 5.77409 54.7693 4.56641C53.9718 4.71224 53.2563 4.81022 52.6228 4.86035L52.4724 4.23145C53.2472 3.12402 53.9558 1.72266 54.5984 0.0273438L55.241 0.334961C54.5847 1.94369 53.9513 3.19466 53.3406 4.08789C53.892 4.0332 54.5027 3.94434 55.1726 3.82129C55.519 3.25163 55.8311 2.64551 56.1091 2.00293L56.7244 2.32422C55.7856 4.29297 54.6622 6.07031 53.3542 7.65625C54.1928 7.47852 55.0382 7.25521 55.8904 6.98633C55.8266 6.69466 55.7081 6.3597 55.5349 5.98145L56.1638 5.76953C56.4281 6.39388 56.6628 7.12077 56.8679 7.9502L56.8679 7.9502ZM64.5105 1.51074L60.9011 1.51074L60.9011 2.25586L64.0046 2.25586L64.0046 2.83008L57.2029 2.83008L57.2029 2.25586L60.2107 2.25586L60.2107 1.51074L56.656 1.51074L56.656 0.922852L60.2107 0.922852L60.2107 0.157227L60.9011 0.157227L60.9011 0.922852L64.5105 0.922852L64.5105 1.51074ZM64.1482 5.40723L56.9226 5.40723L56.9226 3.47266L64.1482 3.47266L64.1482 5.40723ZM63.4578 5.04688L63.4578 4.04688L61.947 4.04688L61.947 5.04688L63.4578 5.04688ZM61.2908 5.04688L61.2908 4.04688L59.739 4.04688L59.739 5.04688L61.2908 5.04688ZM59.0623 5.04688L59.0623 4.04688L57.5789 4.04688L57.5789 5.04688L59.0623 5.04688ZM63.5466 10.418L59.4998 10.418L59.8757 10.876C58.8412 11.5368 57.8158 12.0472 56.7996 12.4072L56.3484 11.8877C57.351 11.5186 58.349 11.0286 59.3425 10.418L57.5789 10.418L57.5789 6.03613L63.5466 6.03613L63.5466 10.418ZM62.8699 7.6377L62.8699 6.6377L58.2693 6.6377L58.2693 7.6377L62.8699 7.6377ZM62.8699 8.86816L62.8699 7.86816L58.2693 7.86816L58.2693 8.86816L62.8699 8.86816ZM62.8699 10.1396L62.8699 9.13965L58.2693 9.13965L58.2693 10.1396L62.8699 10.1396ZM56.8406 10.7256L56.2117 10.9375C56.1069 10.2995 55.8949 9.59766 55.5759 8.83203L56.1638 8.62695C56.4965 9.32878 56.7221 10.0283 56.8406 10.7256L56.8406 10.7256ZM53.7029 9.08496C53.5616 10.1331 53.3087 11.2292 52.9441 12.373L52.2878 12.1543C52.6205 11.2155 52.8735 10.1423 53.0466 8.93457L53.7029 9.08496ZM55.2771 11.8877L54.5472 12.0518C54.5618 11.1676 54.4717 10.1924 54.2771 9.12598L54.934 9.00293C55.1384 10.0465 55.2528 11.0081 55.2771 11.8877L55.2771 11.8877ZM64.5378 11.8604L64.1482 12.4346C63.3142 11.9925 62.3617 11.6006 61.2908 11.2588L61.6941 10.7256C62.6876 11.0081 63.6355 11.3864 64.5378 11.8604L64.5378 11.8604ZM46.8784 3.71191L35.1206 3.71191L35.1206 3.02148L38.6753 3.02148C38.5933 2.75716 38.4064 2.34701 38.1147 1.79102L35.7769 1.79102L35.7769 1.10742L40.5688 1.10742C40.4412 0.870444 40.2293 0.603842 39.9331 0.307617L40.6509 0C40.9608 0.369141 41.2365 0.738281 41.478 1.10742L46.2632 1.10742L46.2632 1.79102L43.9663 1.79102C43.7521 2.26953 43.5425 2.67969 43.3374 3.02148L46.8784 3.02148L46.8784 3.71191ZM43.187 1.79102L38.9146 1.79102C39.0832 2.11003 39.2609 2.52018 39.4478 3.02148L42.5103 3.02148C42.7199 2.70247 42.9455 2.29232 43.187 1.79102L43.187 1.79102ZM45.3267 8.6543L36.6177 8.6543L36.6177 4.64844L45.3267 4.64844L45.3267 8.6543ZM44.5952 6.31836L44.5952 5.31836L37.3491 5.31836L37.3491 6.31836L44.5952 6.31836ZM44.5952 7.96387L44.5952 6.95898L37.3491 6.95898L37.3491 7.96387L44.5952 7.96387ZM42.1616 10.418L41.5601 10.7803C41.3413 10.3382 41.0018 9.83008 40.5415 9.25586L41.1294 8.94824C41.5578 9.37663 41.9019 9.86654 42.1616 10.418L42.1616 10.418ZM47.063 11.4775L46.4204 11.9014C46.1196 11.1768 45.5728 10.3451 44.7798 9.40625L45.3813 9.04395C45.9784 9.7321 46.5389 10.5433 47.063 11.4775L47.063 11.4775ZM37.0688 9.60449C36.6131 10.5068 36.1027 11.2497 35.5376 11.833L34.9497 11.3682C35.5786 10.721 36.0799 10.0169 36.4536 9.25586L37.0688 9.60449ZM44.2603 10.4316C44.2147 11.0833 44.1076 11.5334 43.939 11.7817C43.7703 12.0301 43.5801 12.1839 43.3682 12.2432C43.1563 12.3024 42.6812 12.332 41.9429 12.332C41.3231 12.332 40.7101 12.3218 40.104 12.3013C39.4979 12.2808 39.1299 12.2409 39 12.1816C38.8701 12.1224 38.7516 12.0187 38.6445 11.8706C38.5374 11.7225 38.4839 11.5413 38.4839 11.3271L38.4839 9.29688L39.2085 9.29688L39.2085 11.2725C39.2085 11.4274 39.2917 11.5334 39.458 11.5903C39.6243 11.6473 40.3228 11.6758 41.5532 11.6758C42.3416 11.6758 42.8258 11.6598 43.0059 11.6279C43.1859 11.596 43.3169 11.4525 43.3989 11.1973C43.481 10.9421 43.522 10.6071 43.522 10.1924L44.2603 10.4316ZM29.0686 11.3135C29.0686 11.7738 28.9068 12.07 28.5833 12.2021C28.3235 12.2751 27.9897 12.3172 27.5818 12.3286C27.1739 12.34 26.6373 12.3457 25.9719 12.3457L25.678 11.6074C25.9241 11.6257 26.6897 11.6348 27.9749 11.6348C28.2255 11.6348 28.3508 11.514 28.3508 11.2725L28.3508 1.16211L18.9309 1.16211L18.9309 12.373L18.22 12.373L18.22 0.464844L29.0686 0.464844L29.0686 11.3135ZM27.175 3.88477L20.1204 3.88477L20.1204 2.88477L27.175 2.88477L27.175 3.88477ZM26.3821 9.50879L20.9065 9.50879L20.9065 5.35938L26.3821 5.35938L26.3821 9.50879ZM25.6233 8.76367L25.6233 6.07715L21.6653 6.07715L21.6653 8.76367L25.6233 8.76367ZM12.4893 8.55176L12.0244 9.15332C9.93262 7.48991 8.12793 6.26855 6.61035 5.48926L6.61035 12.4482L5.82422 12.4482L5.82422 4.56641C4.5026 6.14323 2.72526 7.66764 0.492188 9.13965L0 8.49707C3.4362 6.44629 5.76953 4.01953 7 1.2168L0.280273 1.2168L0.280273 0.464844L12.1816 0.464844L12.1816 1.2168L7.85449 1.2168C7.51725 1.94141 7.10254 2.70247 6.61035 3.5L6.61035 4.62109C9.22168 6.13411 11.1813 7.44434 12.4893 8.55176L12.4893 8.55176Z" transform="translate(41.854492 10.393921)" id="不同意續建" fill="#FFFFFF" stroke="none" />
    <g id="Group-2" transform="matrix(-1 0 0 1 31 0)">
      <path d="M3 3.33388L3 10L0 10L0 0L3 0L3 3.33388Z" transform="translate(11 10)" id="Fill-16" fill="#8AC44F" fill-rule="evenodd" stroke="none" />
      <path d="M3.49957 3.42797L7 3.42797L7 6.8572L10.5004 6.8572L10.5004 10.286L14 10.286L14 13.714L10.5004 13.714L10.5004 17.1432L7 17.1432L7 20.572L3.49957 20.572L3.49957 24L0 24L0 0L3.49957 0L3.49957 3.42797Z" transform="translate(14 3)" id="Fill-17" fill="#ADED6D" fill-rule="evenodd" stroke="none" />
      <path d="M8 6.66612L8 10L0 10L0 0L8 0L8 6.66612Z" transform="translate(3 10)" id="Fill-18" fill="#ADED6D" fill-rule="evenodd" stroke="none" />
      <path d="M0 3L3 3L3 0L0 0L0 3Z" transform="translate(14 0)" id="Fill-19" fill="#202126" fill-rule="evenodd" stroke="none" />
      <path d="M0 3L3 3L3 0L0 0L0 3Z" transform="translate(18 4)" id="Fill-20" fill="#202126" fill-rule="evenodd" stroke="none" />
      <path d="M10 7L0 7L0 3.49914L6.66571 3.49914L6.66571 0L10 0L10 7Z" transform="translate(4 3)" id="Fill-21" fill="#202126" fill-rule="evenodd" stroke="none" />
      <path d="M0 3L3 3L3 0L0 0L0 3Z" transform="translate(21 7)" id="Fill-22" fill="#202126" fill-rule="evenodd" stroke="none" />
      <path d="M0 3L3 3L3 0L0 0L0 3Z" transform="translate(24 10)" id="Fill-23" fill="#202126" fill-rule="evenodd" stroke="none" />
      <path d="M3 6.66612L3 10L0 10L0 0L3 0L3 6.66612Z" transform="translate(0 10)" id="Fill-24" fill="#202126" fill-rule="evenodd" stroke="none" />
      <path d="M0 3L3 3L3 0L0 0L0 3Z" transform="translate(28 14)" id="Fill-25" fill="#202126" fill-rule="evenodd" stroke="none" />
      <path d="M0 3L3 3L3 0L0 0L0 3Z" transform="translate(24 17)" id="Fill-26" fill="#202126" fill-rule="evenodd" stroke="none" />
      <path d="M6.66571 0L10 0L10 7L6.66571 7L6.66571 3.50043L0 3.50043L0 0L6.66571 0Z" transform="translate(4 20)" id="Fill-27" fill="#202126" fill-rule="evenodd" stroke="none" />
      <path d="M0 3L3 3L3 0L0 0L0 3Z" transform="translate(21 21)" id="Fill-28" fill="#202126" fill-rule="evenodd" stroke="none" />
      <path d="M0 3L3 3L3 0L0 0L0 3Z" transform="translate(18 24)" id="Fill-29" fill="#202126" fill-rule="evenodd" stroke="none" />
      <path d="M0 3L3 3L3 0L0 0L0 3Z" transform="translate(14 27)" id="Fill-30" fill="#202126" fill-rule="evenodd" stroke="none" />
    </g>
  </g>
</svg>