<?xml version="1.0" encoding="utf-8"?>
<svg width="28px" height="29px" viewBox="0 0 28 29" version="1.1" xmlns:xlink="http://www.w3.org/1999/xlink" xmlns="http://www.w3.org/2000/svg">
  <g id="Group-3">
    <g id="Group-2" transform="matrix(9.934766E-08 1 1 -9.934766E-08 0.4999981 0.5000019)">
      <path d="M2.70968 3.00049L2.70968 9L0 9L0 0L2.70968 0L2.70968 3.00049Z" transform="translate(9.935484 9)" id="Fill-16" fill="#D4D8D0" fill-rule="evenodd" stroke="none" />
      <path d="M3.1609 3.08517L6.32258 3.08517L6.32258 6.17148L9.48426 6.17148L9.48426 9.25741L12.6452 9.25741L12.6452 12.3426L9.48426 12.3426L9.48426 15.4289L6.32258 15.4289L6.32258 18.5148L3.1609 18.5148L3.1609 21.6L0 21.6L0 0L3.1609 0L3.1609 3.08517Z" transform="translate(12.645162 2.7)" id="Fill-17" fill="#FFFFFF" fill-rule="evenodd" stroke="none" />
      <path d="M7.22581 5.99951L7.22581 9L0 9L0 0L7.22581 0L7.22581 5.99951Z" transform="translate(2.7096775 9)" id="Fill-18" fill="#FFFFFF" fill-rule="evenodd" stroke="none" />
      <path d="M0 2.7L2.70968 2.7L2.70968 0L0 0L0 2.7Z" transform="translate(12.645162 0)" id="Fill-19" fill="#202126" fill-rule="evenodd" stroke="none" />
      <path d="M0 2.7L2.70968 2.7L2.70968 0L0 0L0 2.7Z" transform="translate(16.258064 3.6)" id="Fill-20" fill="#202126" fill-rule="evenodd" stroke="none" />
      <path d="M9.03226 6.3L0 6.3L0 3.14923L6.02064 3.14923L6.02064 0L9.03226 0L9.03226 6.3Z" transform="translate(3.612903 2.7)" id="Fill-21" fill="#202126" fill-rule="evenodd" stroke="none" />
      <path d="M0 2.7L2.70968 2.7L2.70968 0L0 0L0 2.7Z" transform="translate(18.967741 6.3)" id="Fill-22" fill="#202126" fill-rule="evenodd" stroke="none" />
      <path d="M0 2.7L2.70968 2.7L2.70968 0L0 0L0 2.7Z" transform="translate(21.67742 9)" id="Fill-23" fill="#202126" fill-rule="evenodd" stroke="none" />
      <path d="M2.70968 5.99951L2.70968 9L0 9L0 0L2.70968 0L2.70968 5.99951Z" transform="translate(0 9)" id="Fill-24" fill="#202126" fill-rule="evenodd" stroke="none" />
      <path d="M0 2.7L2.70968 2.7L2.70968 0L0 0L0 2.7Z" transform="translate(25.290323 12.6)" id="Fill-25" fill="#202126" fill-rule="evenodd" stroke="none" />
      <path d="M0 2.7L2.70968 2.7L2.70968 0L0 0L0 2.7Z" transform="translate(21.67742 15.3)" id="Fill-26" fill="#202126" fill-rule="evenodd" stroke="none" />
      <path d="M6.02064 0L9.03226 0L9.03226 6.3L6.02064 6.3L6.02064 3.15039L0 3.15039L0 0L6.02064 0Z" transform="translate(3.612903 18)" id="Fill-27" fill="#202126" fill-rule="evenodd" stroke="none" />
      <path d="M0 2.7L2.70968 2.7L2.70968 0L0 0L0 2.7Z" transform="translate(18.967741 18.9)" id="Fill-28" fill="#202126" fill-rule="evenodd" stroke="none" />
      <path d="M0 2.7L2.70968 2.7L2.70968 0L0 0L0 2.7Z" transform="translate(16.258064 21.6)" id="Fill-29" fill="#202126" fill-rule="evenodd" stroke="none" />
      <path d="M0 2.7L2.70968 2.7L2.70968 0L0 0L0 2.7Z" transform="translate(12.645162 24.3)" id="Fill-30" fill="#202126" fill-rule="evenodd" stroke="none" />
    </g>
  </g>
</svg>