<?xml version="1.0" encoding="utf-8"?>
<svg width="180px" height="19px" viewBox="0 0 180 19" version="1.1" xmlns:xlink="http://www.w3.org/1999/xlink" xmlns="http://www.w3.org/2000/svg">
  <g id="資產-1">
    <path d="M9.96975 15.4629C10.006 14.9466 10.0315 14.4848 10.0762 14.0251C10.0997 13.8073 10.0209 13.8073 9.86326 13.8923C8.64746 14.5107 7.29605 14.7974 5.94006 14.7244C4.53249 14.6796 3.15616 14.2888 1.9274 13.5851C1.37154 13.274 0.932504 12.7828 0.679298 12.1887C0.403899 11.5529 0.189896 10.8912 0.0403396 10.2128C-0.0755355 9.52797 0.0602514 8.82346 0.421585 8.23481C1.27898 6.65084 2.31242 5.17349 3.50136 3.83216C3.63877 3.70234 3.79027 3.58905 3.95289 3.4945C4.03596 3.4335 4.16588 3.38558 4.18718 3.30279C4.40017 2.70154 4.94754 2.43141 5.34157 1.99572C5.75241 1.57703 6.20826 1.20725 6.70042 0.893425C7.16905 0.599511 7.66228 0.348731 8.17428 0.144037C8.93251 -0.189266 9.6162 0.117896 10.3041 0.438128C10.7167 0.647394 11.0418 1.00156 11.22 1.43586C11.5148 2.05586 11.676 2.73338 11.6928 3.42261C11.6793 3.7719 11.5194 4.09831 11.2539 4.31851C10.9885 4.53871 10.6432 4.63137 10.3063 4.57283C10.1554 4.53348 10.0315 4.42369 9.97188 4.27656C9.82918 3.99119 9.70139 3.69709 9.56082 3.40518C9.27542 2.83007 9.09012 2.74293 8.51506 2.99563C7.58973 3.39982 6.74173 3.96847 6.01034 4.67522C4.71272 5.87333 3.61617 7.28117 2.76443 8.8426C2.52827 9.24441 2.36721 9.68764 2.28947 10.1497C2.17859 10.6729 2.43808 11.2046 2.91352 11.4284C3.44812 11.7421 4.04448 11.8402 4.63658 11.9556C4.84757 11.9736 5.04852 12.0555 5.21377 12.1909C5.36712 12.3368 5.5865 12.2889 5.77819 12.2519C6.00087 12.1971 6.23414 12.2077 6.45122 12.2824C6.74097 12.3623 7.04754 12.3509 7.33086 12.2497C7.75282 12.1543 8.17937 12.0816 8.60877 12.0319C9.2684 11.9275 9.86256 11.5651 10.2658 11.0211C10.3437 10.889 10.3883 10.7393 10.3957 10.5854C10.4383 10.3131 10.3531 10.2259 10.0912 10.2738L8.21049 10.6333C7.41605 10.7836 6.62161 10.9317 5.82291 11.0537C5.59337 11.0958 5.35887 11.0134 5.20312 10.8359C4.8835 10.5022 4.70982 10.0502 4.72178 9.58327C4.71891 9.36483 4.73101 9.14645 4.75798 8.92974C4.78076 8.40797 5.14938 7.96976 5.65039 7.86883C6.92831 7.5181 8.23818 7.28283 9.54591 7.05627C10.3829 6.91031 11.2242 6.77743 12.0677 6.67068C12.9111 6.56394 13.5735 6.88853 13.8568 7.73377C14.0103 8.17555 14.1369 8.62663 14.2359 9.08441C14.279 9.38496 14.2228 9.69163 14.0761 9.95579C13.5325 11.1223 13.1655 12.3667 12.9878 13.6461C12.866 14.5948 12.8246 15.5526 12.8642 16.5086C12.8898 17.4083 12.2743 17.9311 11.4138 17.7895C11.3137 17.7721 11.2115 17.759 11.1114 17.7372C10.3702 17.5717 10.1167 17.3015 10.0017 16.526C9.9568 16.1736 9.94609 15.8175 9.96975 15.4629L9.96975 15.4629Z" transform="translate(0 1.1875)" id="Path" fill="#66CC00" stroke="none" />
    <path d="M3.16994e-05 10.9588C3.16994e-05 9.53261 0.46494 8.22902 1.1176 6.96845C1.60709 6.00688 2.19046 5.09049 2.62631 4.10097C2.78501 3.74172 2.86547 3.35237 3.14934 3.0426C3.25662 2.92644 3.25215 2.71993 3.3125 2.56074C3.44385 2.0774 3.87156 1.72224 4.3876 1.66802C6.66621 1.30601 8.91192 0.773048 11.1042 0.0740156C11.4748 -0.0842538 11.9096 0.0172837 12.1636 0.321398C12.9415 1.1625 13.2611 2.11115 12.937 3.22115C12.8673 3.50275 12.6378 3.72199 12.3447 3.7869C11.1824 4.10742 9.97544 4.30317 8.79975 4.53765C7.75148 4.75276 6.70543 4.95497 5.67057 5.22602C5.34023 5.30804 5.05629 5.51106 4.87933 5.79177C4.69293 6.04342 4.54817 6.32135 4.45018 6.61566C4.36748 6.90606 4.45018 7.02007 4.76534 7.02437C5.14899 7.00896 5.53084 6.96509 5.90749 6.89316C7.05166 6.76893 8.16774 6.46899 9.21325 6.00473C9.49935 5.89785 9.82442 5.98548 10.0112 6.21985C10.5531 6.88972 10.7526 7.75888 10.5543 8.58611C10.4202 9.18413 9.90391 9.42291 9.32501 9.50465C7.42738 9.77354 5.52528 10.0295 3.62989 10.2941C3.49802 10.3113 3.36838 10.3522 3.23651 10.3716C2.96054 10.4021 2.74487 10.6151 2.72019 10.8814C2.65367 11.1482 2.75604 11.4278 2.9817 11.5956C3.2298 11.7829 3.53582 11.8851 3.85117 11.886C4.82683 11.9349 5.79987 11.7501 6.68308 11.3482C6.95318 11.1972 7.25042 11.0965 7.55925 11.0513C7.75609 11.0285 7.95126 11.1049 8.07557 11.2535C8.35585 11.5788 8.52865 11.9774 8.57177 12.3979C8.74164 13.5617 8.29238 14.4803 7.34021 14.9083C5.99879 15.5296 4.4545 15.6071 3.05322 15.1234C1.05054 14.4587 -0.0066737 13.0239 3.16994e-05 10.9588Z" transform="translate(67.6875 1.1875)" id="Path" fill="#66CC00" stroke="none" />
    <path d="M0.000445112 9.92923C0.0814242 8.55983 0.371187 7.20855 0.860819 5.91694C1.10227 5.24108 1.38106 4.57757 1.69602 3.92913C1.85072 3.56822 1.92848 3.18214 1.92484 2.79292C1.95002 2.10948 2.32757 1.65672 2.85844 1.26864C2.91039 1.23522 2.96997 1.2138 3.03235 1.20612C4.78348 0.78256 6.55801 0.450037 8.3479 0.210057L10.0801 0.0117063C10.237 -0.0175737 10.3999 0.00851487 10.5377 0.0850097C11.3075 0.575197 11.7992 1.36843 11.8741 2.24099C11.8772 2.29309 11.8726 2.34533 11.8603 2.39622C11.7574 2.99559 11.6796 3.08614 11.0411 3.15513C9.59727 3.31252 8.15111 3.45265 6.70724 3.60357C6.44409 3.6316 6.18324 3.67903 5.92238 3.72C5.5284 3.77865 5.18097 3.99583 4.97048 4.31505C4.75519 4.60348 4.56757 4.9094 4.40986 5.22918C4.22451 5.64313 4.40986 5.87598 4.88124 5.81346C5.98084 5.69763 7.04912 5.39523 8.03441 4.92088C8.55155 4.66863 8.87648 4.78505 9.19454 5.08905C9.87095 5.68435 10.2007 6.5507 10.0801 7.41535C10.0514 7.67137 9.8755 7.89174 9.62244 7.98884C8.70607 8.40017 7.7154 8.6445 6.70266 8.70894C6.36629 8.7305 6.06883 8.84261 5.74847 8.88573C4.91785 8.99569 4.07807 9.06252 3.25888 9.24794C3.04649 9.26212 2.85696 9.37873 2.75776 9.55624C2.54495 10.0284 2.59758 10.203 3.09413 10.4035C4.04323 10.787 5.10389 10.8495 6.09628 10.5803C6.3945 10.4898 6.67008 10.3431 6.90632 10.1491C7.01537 10.0404 7.17053 9.98362 7.32889 9.99449C7.48724 10.0054 7.63203 10.0827 7.72321 10.2052C8.09601 10.612 8.33459 11.1126 8.40968 11.6454C8.68198 12.9993 8.00238 13.8768 6.50588 14.1463C5.00938 14.4158 3.625 14.1269 2.23604 13.6591C1.75419 13.5049 1.3478 13.1917 1.09193 12.7773C0.670896 12.1305 0.247574 11.4729 0.059939 10.7118C0.0166022 10.453 -0.0033008 10.1912 0.000445112 9.92923Z" transform="translate(35.625 1.1875)" id="Path" fill="#66CC00" stroke="none" />
    <path d="M6.27125e-15 9.52578C6.27125e-15 8.41175 0.361866 7.36562 0.825231 6.34283C0.968653 6.02453 1.20475 5.70624 1.18268 5.37309C1.16062 5.03994 0.864948 4.76621 0.620026 4.54128C-0.013239 3.96623 0.304497 2.38324 0.891426 1.92914C1.11041 1.73196 1.39902 1.622 1.699 1.62145C2.06308 1.62145 2.3411 1.37318 2.64559 1.21403C2.71393 1.16211 2.79408 1.12647 2.87948 1.11006C3.95846 1.03579 4.97786 0.685665 6.02816 0.473468C6.82029 0.316443 7.60581 0.125466 8.41118 0.0193674C8.68249 -0.0145955 8.95783 -0.00383149 9.22538 0.0511969C9.46247 0.0976008 9.66785 0.238793 9.79024 0.439517C10.1302 0.953256 10.4092 1.50203 10.6221 2.07555C10.7854 2.53178 10.664 3.03256 10.0175 3.17473C9.029 3.38693 8.01621 3.48666 7.03653 3.7222C6.13186 3.9344 5.20072 4.09779 4.35563 4.52006C4.14528 4.61099 3.9905 4.79039 3.9364 5.00599C3.89668 5.16089 3.86137 5.32004 3.8349 5.47919C3.78635 5.77414 3.90109 5.90358 4.22103 5.90358C4.87399 5.90822 5.52493 5.83335 6.15834 5.68077C6.59964 5.58529 7.05197 5.4898 7.48224 5.36036C7.87091 5.23676 8.29786 5.37305 8.53254 5.69563C8.82257 6.03838 9.02103 6.44415 9.11064 6.87756C9.20423 7.20705 9.21557 7.55313 9.14374 7.88762C9.10276 8.08892 8.9699 8.26187 8.78187 8.3587C8.50991 8.50346 8.20907 8.59098 7.89927 8.61545C6.50697 8.7555 5.10805 8.85312 3.7334 9.12048C3.58777 9.14807 3.44435 9.19687 3.2921 9.22022C2.93464 9.27963 2.80667 9.51517 2.76916 9.8271C2.7378 10.0913 2.89815 10.3419 3.1575 10.434C4.0048 10.8393 4.86533 10.922 5.74352 10.5082C6.40547 10.1921 6.62612 10.2494 7.06742 10.835C7.38273 11.2357 7.56775 11.717 7.59919 12.2186C7.66097 13.2795 6.98357 14.0519 5.88694 14.2196C5.25498 14.2905 4.61461 14.2371 4.0048 14.0625C3.07743 13.8562 2.19077 13.5073 1.37906 13.0291C1.26129 12.9737 1.17263 12.8738 1.13414 12.7533C1.07027 12.5772 0.945696 12.4275 0.781101 12.3289C0.616976 12.214 0.496161 12.0509 0.436887 11.8642C0.147957 11.1159 1.5226e-05 10.324 0 9.52578L6.27125e-15 9.52578Z" transform="translate(26.125 1.1875)" id="Path" fill="#66CC00" stroke="none" />
    <path d="M5.41719 10.556C4.24193 10.7984 3.1106 11.1078 1.9617 11.3458C1.44766 11.4518 0.863324 11.5102 0.439351 11.0558C0.0746896 10.6664 0 10.1666 0 9.65812C0.0121942 9.51599 0.1049 9.39285 0.239446 9.34007C0.429462 9.23014 0.638928 9.15672 0.856734 9.12371C2.37249 8.93547 3.88606 8.7429 5.40181 8.56549C5.59513 8.54385 5.64346 8.48759 5.63687 8.29719C5.62573 7.58003 5.65433 6.8628 5.72254 6.1487C5.76722 5.20074 5.74667 4.2509 5.66103 3.30568C5.64785 3.11311 5.53362 3.16504 5.42818 3.1672C4.63075 3.18451 3.83333 3.19966 3.03591 3.1672C2.70429 3.17156 2.39844 2.99165 2.24508 2.70202C1.99685 2.26929 1.77498 1.83656 1.5531 1.36922C2.04957 1.32811 2.52407 1.28484 3.00076 1.24805C5.29194 1.06539 7.56036 0.669116 9.77555 0.0645428C10.3225 -0.0804212 10.7333 0.00612446 11.0716 0.453998C11.2659 0.688068 11.4463 0.932965 11.612 1.18747C11.9064 1.68295 11.7504 2.05293 11.1837 2.16327C10.4543 2.31257 9.72063 2.44887 8.98691 2.596C8.56514 2.67606 8.14116 2.74962 7.71939 2.81237C7.58539 2.83617 7.49971 2.85131 7.5744 3.02873C7.72809 3.41513 7.80274 3.82763 7.79408 4.24253C7.79408 5.50177 7.83142 6.76101 7.8446 8.02241C7.8446 8.18036 7.89733 8.20632 8.04231 8.18469C9.28128 7.99429 10.5334 7.90125 11.7768 7.68272C12.0229 7.62226 12.2611 7.53367 12.4863 7.41876C12.6125 7.35483 12.7622 7.35483 12.8883 7.41876C13.633 7.77792 14.3558 8.61525 14.2372 9.59754C14.2353 9.76026 14.1075 9.89461 13.9428 9.90694C13.7601 9.93207 13.5758 9.94292 13.3914 9.9394C12.2418 9.92353 11.0936 9.95238 9.9469 10.0259C9.30764 10.0671 8.67498 10.1666 8.03792 10.2423C7.89513 10.2575 7.8468 10.3094 7.85119 10.4587C7.87988 11.923 7.791 13.3873 7.58539 14.8379C7.54145 15.1797 7.50411 15.5259 7.42722 15.8613C7.27564 16.5342 6.89121 16.7657 6.23438 16.5428C5.90707 16.4325 5.52483 16.4 5.30516 16.0625C5.14047 15.8355 5.06691 15.5565 5.09866 15.2793C5.31834 13.7517 5.30076 12.2112 5.42159 10.6772C5.42222 10.6368 5.42076 10.5963 5.41719 10.556L5.41719 10.556Z" transform="translate(165.0625 1.1875)" id="Path" fill="#66CC00" stroke="none" />
    <path d="M2.2184 6.00679C1.80303 5.92018 1.38084 5.8775 0.95782 5.87936C0.680133 5.8664 0.384466 5.87936 0.254612 5.52298C0.082806 5.04132 0.146734 4.7195 0.454387 4.39984C1.60909 3.22703 2.59398 1.92894 3.11339 0.278794C3.15495 0.154154 3.25603 0.0639084 3.37709 0.0433676C3.68138 -0.0527729 4.0098 0.0129533 4.2621 0.220477C4.72733 0.590951 4.88189 1.26754 4.62968 1.82959C4.39828 2.38109 4.06518 2.87573 3.65079 3.28318C3.25124 3.67412 2.86967 4.0737 2.48011 4.46896C2.42417 4.52727 2.37422 4.59423 2.3083 4.67414C2.59372 4.77213 2.89006 4.82807 3.18931 4.84045C3.36432 4.85472 3.5362 4.89845 3.69873 4.97005C3.90432 5.06321 4.06037 5.25122 4.12385 5.48224C4.18734 5.71326 4.15155 5.96289 4.02636 6.1623C3.5489 6.95282 2.91961 7.61158 2.38022 8.34809C2.29032 8.46905 2.19642 8.58568 2.08056 8.73471C2.36302 8.66348 2.63963 8.5674 2.90762 8.44745C3.03348 8.39777 2.98554 8.25306 2.99353 8.15155C3.03148 7.68069 3.06145 7.65262 3.49496 7.75629C4.21415 7.92692 4.21016 7.9442 4.33002 8.73903C4.38396 9.08893 4.39794 9.387 4.16221 9.67858C3.86455 10.0371 3.465 10.0566 3.06744 10.0782C3.01135 10.0731 2.96121 10.0383 2.93359 9.98528C2.86567 9.78441 2.76179 9.83625 2.62195 9.89673C2.28608 10.055 1.96214 10.2413 1.65304 10.454C1.05371 10.8363 0.716093 10.7585 0.306554 10.1516C0.215678 10.0171 0.138643 9.87221 0.0768128 9.71962C-0.0577147 9.44429 -0.0125124 9.10655 0.188687 8.88375C0.825031 8.14453 1.41249 7.35783 1.94671 6.52948C2.05869 6.36932 2.15009 6.19349 2.2184 6.00679Z" transform="translate(121.125 1.1875)" id="Path" fill="#66CC00" stroke="none" />
    <path d="M1.2441 4.74972C0.830394 4.64544 0.334854 4.5933 0.0643522 4.0387C-0.0037968 3.90206 -0.0184639 3.74319 0.023436 3.5955C0.116634 3.14044 0.414413 2.84656 0.705372 2.53845C1.33503 1.87483 1.75783 1.05004 2.29656 0.31295C2.29656 0.298729 2.32611 0.279769 2.32383 0.265548C2.28064 -0.101813 2.53523 0.0143207 2.69208 0.0285411C3.22357 0.100305 3.73468 0.287632 4.19234 0.578398C4.89246 1.02871 4.89246 1.71129 4.41965 2.273C4.37972 2.32505 4.33478 2.3727 4.28554 2.4152C3.49449 3.01957 2.79664 3.7377 2.04651 4.39658C1.83963 4.62829 1.54765 4.75679 1.2441 4.74972Z" transform="translate(173.375 3.5625)" id="Path" fill="#66CC00" stroke="none" />
    <path d="M1.5243 0C1.97265 0.0128212 2.37489 0.234782 2.56664 0.575164C2.89012 1.26697 3.20163 1.96481 3.52511 2.6546C3.60027 2.7619 3.55861 2.89997 3.43166 2.96431C3.0262 3.21204 2.57871 3.40728 2.10417 3.54349C1.93588 3.58852 1.75172 3.55219 1.62494 3.44897C1.19114 3.17495 0.854083 2.80727 0.649691 2.38512C0.467581 1.96481 0.29266 1.54047 0.0865881 1.12619C-0.0271913 0.938626 -0.028927 0.717011 0.0819045 0.528204C0.192736 0.339396 0.403157 0.205504 0.649691 0.166918C0.937286 0.0976214 1.22928 0.0418948 1.5243 7.14473e-16L1.5243 0Z" transform="translate(166.25 4.75)" id="Path" fill="#66CC00" stroke="none" />
    <path d="M0.373989 0.118839C0.464479 0.137927 0.558115 0.130857 0.645175 0.0983618C1.1064 -0.113238 1.4993 0.0414801 1.88153 0.325889C2.36997 0.69121 2.82791 1.10076 3.25027 1.54998C3.46784 1.77863 3.58096 2.09704 3.56004 2.42188C3.53911 2.74673 3.38621 3.04568 3.14136 3.24051C3.01282 3.34998 2.86864 3.43678 2.7143 3.49761C2.36411 3.6273 2.24026 3.56132 2.0737 3.31104C1.66586 2.68534 1.24093 2.07102 0.820271 1.45442C0.647097 1.15828 0.431696 0.892684 0.18181 0.667179L0.162593 0.648977C0.0750445 0.532938 -0.0509394 0.437377 0.0216615 0.248529C0.0942623 0.0596822 0.241599 0.130216 0.373989 0.118839Z" transform="translate(133 11.875)" id="Path" fill="#66CC00" stroke="none" />
    <path d="M3.51642 0.326071C3.51277 0.362335 3.51277 0.399025 3.51642 0.435289C3.67457 1.04206 3.40122 1.40612 3.06734 1.77747C2.62412 2.26288 2.28634 2.88422 1.81383 3.34051C1.66207 3.50717 1.46044 3.58571 1.25931 3.55652C0.722388 3.52103 0.254029 3.09155 0.0682768 2.46433C-0.0586367 2.07357 -0.0234914 1.93037 0.300626 1.82358C1.31789 1.48864 2.19847 0.816341 3.08101 0.141612C3.10186 0.128043 3.12149 0.111772 3.13958 0.0930707C3.22841 -0.00862089 3.35934 -0.0290877 3.46565 0.042102C3.60819 0.112487 3.48713 0.250831 3.51642 0.326071Z" transform="translate(127.0625 11.875)" id="Path" fill="#66CC00" stroke="none" />
    <path d="M1.60673 3.56212C1.32003 3.56545 1.03347 3.54692 0.749246 3.50667C0.530263 3.49376 0.326075 3.3848 0.18521 3.2057C0.0443449 3.02659 -0.020618 2.79332 0.00576087 2.56134C0.0228751 1.72526 0.282603 0.915343 0.749246 0.242915C0.844096 0.0653259 1.03397 -0.0289425 1.2226 0.00790408C1.4283 0.0501533 1.45803 0.229712 1.4853 0.414553C1.56485 0.868664 1.67501 1.31608 1.81491 1.75332C1.87439 1.95665 1.976 1.99362 2.10487 1.8299C2.23374 1.66619 2.33039 1.81406 2.31056 1.90912C2.21391 2.38706 2.3403 2.84652 2.375 3.3139C2.375 3.47234 2.29322 3.53571 2.14948 3.53835C2.00574 3.54099 1.78269 3.5542 1.60673 3.56212Z" transform="translate(119.9375 11.875)" id="Path" fill="#66CC00" stroke="none" />
    <path d="M0.00525541 1.06463C-0.0251948 0.838592 0.0779558 0.614338 0.281471 0.464126C0.328428 0.424711 0.375385 0.385295 0.416817 0.343561C0.521779 0.232271 0.502444 0.0120088 0.693033 0.00273456C0.990453 -0.0101965 1.28818 0.0228102 1.5714 0.100114C1.65424 0.128584 1.71791 0.18627 1.74541 0.257775C2.01712 0.731313 2.22109 1.23018 2.35309 1.74397C2.43043 2.08943 2.30889 2.21927 1.89457 2.20768C1.63339 2.22431 1.37605 2.27032 1.12945 2.34447C0.899027 2.40539 0.648034 2.37413 0.448611 2.25967C0.249188 2.14521 0.12342 1.96022 0.107455 1.75788C0.0632607 1.5237 0.0384013 1.29417 0.00525541 1.06463Z" transform="translate(122.3125 11.875)" id="Path" fill="#66CC00" stroke="none" />
    <path d="M1.1875 1.60935C1.1875 2.1345 1.14371 2.22244 0.88409 2.31541C0.690133 2.39486 0.486868 2.39486 0.292911 2.31541C0.147103 2.27135 0.0406202 2.06879 0.037984 1.83046C0.037509 1.51025 0.0553085 1.19064 0.0911589 0.875645C0.123039 0.690237 0.102441 0.49168 0.0348561 0.332906C-0.0355224 0.204759 0.00983263 0.144454 0.089595 0.0992262C0.31328 -0.0546835 0.569202 -0.0283888 0.778862 0.170045C0.988521 0.368478 1.12689 0.715364 1.15153 1.1043C1.16873 1.30029 1.17968 1.51135 1.1875 1.60935Z" transform="translate(124.6875 11.875)" id="Path" fill="#66CC00" stroke="none" />
    <path d="M37.8936 2.13559C37.7217 1.37846 37.2788 0.712158 36.6498 0.264725C36.4961 0.123613 36.289 0.0574824 36.0828 0.0837469C34.373 0.436655 32.6519 0.717171 30.9286 1.04746C29.2053 1.37774 27.4618 1.4999 25.7519 1.88674C24.7077 2.1288 23.7799 3.18526 23.8606 4.2734C23.9179 4.6836 23.834 5.10123 23.623 5.45654C23.5832 5.52964 23.5481 5.6052 23.5177 5.68277C22.814 7.13738 22.2784 8.64176 22.2157 10.2796C22.2157 10.5443 22.2157 10.8112 22.2157 11.0759C22.1461 11.0537 22.0855 11.0093 22.0431 10.9492C21.4605 10.2479 21.2924 10.162 20.5731 10.723C19.953 11.2167 19.1669 11.4472 18.3814 11.3655C16.8844 11.1845 15.5824 10.5058 14.3992 9.57606C13.909 9.23739 13.7218 8.59775 13.951 8.04453C14.3723 6.7347 15.2373 5.7823 16.3376 5.04029C16.8971 4.64027 17.5477 4.38968 18.229 4.31185C18.7534 4.25756 18.9013 4.41139 18.778 4.92039C18.7175 5.17603 18.6503 5.42713 18.5808 5.67824C18.4549 6.09716 18.5797 6.55184 18.9013 6.84555C19.2944 7.23212 19.7877 7.49875 20.3243 7.61471C20.5956 7.68538 20.8837 7.64126 21.1221 7.49255C21.6313 7.19704 22.0162 6.72404 22.2045 6.16236C22.6011 5.03124 22.4286 3.93859 21.8975 2.89117C21.6599 2.39119 21.2938 1.96466 20.8375 1.656C20.2974 1.30535 19.7013 1.35738 19.1187 1.42977C17.0145 1.73414 15.0036 2.50685 13.2316 3.692C13.1444 3.73741 13.072 3.80733 13.0232 3.89334C12.9207 4.10712 12.7556 4.28399 12.5504 4.40008C12.2048 4.62396 11.9242 4.93616 11.7369 5.30497C11.4824 5.73921 11.2606 6.19218 11.0736 6.66005C11.0481 6.78022 10.9753 6.88475 10.8719 6.94961C10.8138 6.88979 10.7857 6.80656 10.7957 6.72339C10.7957 5.47238 10.4259 4.28697 10.1682 3.08346C9.95728 2.23091 9.56754 1.434 9.0253 0.74658C8.78351 0.397118 8.42445 0.147968 8.01462 0.045289C7.74003 -0.0471155 7.43793 0.0037119 7.20787 0.181023C6.68134 0.603308 6.22121 1.10366 5.84311 1.66505C4.69573 3.27123 3.76125 5.01088 2.83124 6.74828C2.59871 7.23779 2.23649 7.65277 1.78471 7.94726C1.69883 7.98604 1.65264 8.0812 1.6749 8.17348C1.79367 8.89061 1.54492 9.53082 1.2267 10.1439C0.868147 10.8497 0.498386 11.5487 0.126384 12.25C-0.138051 12.75 0.103974 13.2748 0.045709 13.7838C0.045709 13.7974 0.0613958 13.8155 0.0726007 13.8291C0.393786 14.4108 0.911625 14.8565 1.53148 15.0846C1.90124 15.2113 2.05586 15.1525 2.29789 14.8448C2.62972 14.3842 2.8953 13.8784 3.08671 13.3427C3.29404 12.8055 3.53583 12.2826 3.81055 11.7772C3.86246 11.6329 3.97113 11.5167 4.11084 11.456C4.90151 11.1696 5.73589 11.0256 6.57591 11.0307C6.75952 11.0497 6.94504 11.0336 7.12271 10.9832C7.53057 10.8452 7.73898 11.0126 7.74346 11.4356C7.75467 12.2749 7.74346 13.1165 7.8219 13.9557C7.83571 14.3783 8.04575 14.7697 8.38886 15.0122C8.81624 15.2816 9.30812 15.4286 9.81188 15.4375C9.89178 15.4347 9.96935 15.4097 10.036 15.3651C10.3644 15.1874 10.5975 14.8716 10.6724 14.5032C10.7426 14.1306 10.7674 13.7508 10.7464 13.3721C10.6938 12.3243 10.7028 11.2743 10.7733 10.2276C10.7733 10.1597 10.7576 10.0602 10.8539 10.0534C10.9503 10.0466 10.9324 10.1394 10.9525 10.1959C11.1882 10.7839 11.5431 11.3156 11.9946 11.7569C13.8882 13.7748 16.1382 15.0801 18.9237 15.3493C20.2683 15.4782 21.3327 14.9262 21.9535 13.7137C22.104 13.4087 22.2313 13.0925 22.3345 12.7681C22.3546 12.7093 22.3345 12.6142 22.4353 12.6029C22.4353 12.6029 22.4577 12.6029 22.4622 12.6165L22.5787 12.7975C23.2151 13.8304 24.2286 14.5691 25.4001 14.8538C26.0476 15.0057 26.7155 15.0477 27.3767 14.9783C28.3571 14.8903 29.3276 14.7131 30.2765 14.4489C30.7545 14.328 31.1358 13.9646 31.2827 13.4897C31.4489 13.0018 31.5359 12.49 31.5404 11.974C31.5583 11.2343 31.2244 10.9357 30.4961 11.0035C29.9874 11.051 29.4899 11.1687 28.9902 11.2659C28.226 11.4153 27.4641 11.5917 26.6752 11.4582C26.2275 11.41 25.8052 11.2245 25.4651 10.9266C25.3228 10.8082 25.2745 10.6094 25.3463 10.438C25.4606 10.1099 25.604 10.0262 26.0545 10.119C26.3174 10.1683 26.5871 10.1683 26.85 10.119C27.4209 9.99888 28.0041 9.9495 28.5868 9.97195C29.5345 10.0211 30.4845 9.94504 31.4127 9.74573C31.8608 9.66429 32.2844 9.41997 32.3942 8.93133C32.5936 8.2016 32.4371 7.41965 31.9729 6.82519C31.4911 6.23701 31.2267 5.98138 30.3773 6.2076C29.2601 6.51236 28.1019 6.63531 26.9464 6.57182C26.8231 6.576 26.7039 6.52713 26.6184 6.43738C26.5329 6.34763 26.4892 6.22545 26.4982 6.10128C26.5497 5.5606 27.2377 4.78014 27.7688 4.6806C28.1386 4.61047 28.5106 4.5607 28.8893 4.50867C30.272 4.31638 31.6614 4.16707 33.053 4.04265C34.0937 3.91198 35.1418 3.85077 36.1904 3.85941C36.608 3.90394 37.0277 3.92433 37.4476 3.92049C37.786 3.8956 37.8824 3.80964 37.9496 3.46804C38.0322 3.02542 38.0131 2.56955 37.8936 2.13559ZM7.94515 6.72339C7.94557 6.93668 7.80251 7.12303 7.5978 7.17584C7.04872 7.33873 6.47802 7.41504 5.90586 7.40206C5.71314 7.40206 5.71314 7.298 5.77589 7.15095C6.21288 6.12616 6.65659 5.10363 7.18098 4.11956C7.24372 4.00193 7.27958 3.82547 7.47903 3.86846C7.66082 3.89357 7.80909 4.02801 7.85327 4.20779C7.92743 4.56988 7.97092 4.93769 7.98325 5.30724C7.99445 5.4588 7.98325 5.6149 7.98325 5.75968L8.00566 5.75968C7.98549 6.09449 7.9586 6.40894 7.94515 6.72339Z" transform="translate(77.1875 1.1875)" id="Shape" fill="#66CC00" stroke="none" />
    <path d="M23.7209 3.74392C23.5873 3.08255 23.363 2.44202 23.0542 1.83985C22.6007 0.839937 21.6936 0.479166 20.7458 0.280964C19.5621 0.0426772 18.3466 0.105033 17.1403 0.105033C16.8167 0.146065 16.4883 0.13175 16.1698 0.06272C15.8811 -0.0485917 15.5549 -0.0101078 15.3013 0.165161C15.1102 0.271542 14.9099 0.360975 14.7026 0.432399C14.588 0.4899 14.4522 0.4899 14.3375 0.432399C14.0613 0.312616 13.7489 0.301457 13.4645 0.401222C13.0677 0.492528 12.6709 0.586061 12.2808 0.699637C11.5416 0.922336 10.8205 1.16285 10.4554 1.95566C10.4395 1.89553 10.4191 1.83763 10.4101 1.7775C10.2916 1.00772 9.69027 0.395753 8.91117 0.252014C8.69797 0.203502 8.47382 0.247938 8.29646 0.373873C8.11911 0.499809 8.0059 0.694931 7.98599 0.908974C7.89529 2.4545 7.72749 3.99335 7.69801 5.54333C7.6938 6.17555 7.63157 6.80611 7.51207 7.42735C7.49393 7.51866 7.51207 7.62556 7.36921 7.65005C7.22635 7.67455 7.15605 7.60997 7.07896 7.50975C6.83405 7.18907 6.58235 6.87506 6.33065 6.56106C5.92702 6.05776 5.51205 5.56337 5.14923 5.03112C4.75601 4.49756 4.52984 3.86292 4.49843 3.20499C4.50746 2.53441 4.46196 1.86418 4.36237 1.20071C4.32741 0.780765 4.02359 0.429516 3.60726 0.327731C3.36236 0.265376 3.122 0.182977 2.8771 0.120622C2.47282 -0.00691941 2.03066 0.0661457 1.69114 0.316596C1.59364 0.390087 1.47799 0.463577 1.48026 0.610558C1.47611 0.781226 1.40833 0.944464 1.28978 1.06932C1.1571 1.2392 1.07824 1.44366 1.06302 1.65724C0.974583 2.46341 0.904287 3.26735 1.13105 4.06684C1.22855 4.40534 1.28071 4.74607 1.0222 5.05562C0.956442 5.13579 0.994991 5.24491 1.00179 5.34067C1.04899 5.75633 1.0543 6.17555 1.01767 6.59224C0.843062 7.81708 0.543739 9.01965 0.314712 10.2334C0.15598 11.0707 -0.0549068 11.9014 0.0131212 12.7677C0.110628 13.997 0.963245 14.7719 2.19228 14.743C2.32902 14.7643 2.46792 14.7205 2.56644 14.625C2.82342 14.3475 2.9921 14.0022 3.0517 13.6317C3.10612 12.9837 3.15828 12.3379 3.22857 11.692C3.28869 10.8044 3.43524 9.9244 3.66622 9.06419C3.72518 8.87712 3.7796 8.66556 4.00863 8.61879C4.23766 8.57202 4.33743 8.79027 4.43494 8.9328C4.9134 9.6343 5.38733 10.338 5.88393 11.0262C6.07591 11.2955 6.25012 11.5767 6.40548 11.868C6.72673 12.4056 6.91109 13.0114 6.9429 13.634C6.96352 14.1659 7.19552 14.6688 7.58916 15.0347C7.71826 15.197 7.89591 15.3153 8.09711 15.3732C8.44333 15.4423 8.79865 15.4558 9.14927 15.4133C9.70121 15.3688 10.1549 14.9678 10.2581 14.4334C10.4171 13.7925 10.4593 13.1291 10.3828 12.4737C10.342 11.9704 10.2128 11.4671 10.215 10.966C10.215 10.318 10.3239 9.67215 10.3738 9.0241C10.4713 7.68791 10.5257 6.35172 10.5189 5.01553C10.5185 4.9389 10.5023 4.86315 10.4713 4.79283C10.2979 4.42895 10.3106 4.00591 10.5053 3.65262C10.8594 4.27261 11.6525 4.50193 12.2922 4.16928C12.4104 4.12642 12.5255 4.07582 12.6368 4.01784C13.2423 3.64148 13.9543 3.62144 14.6187 3.44551C14.757 3.40988 14.7865 3.44551 14.7956 3.58358C14.807 4.04565 14.7941 4.50799 14.757 4.96877C14.7185 5.81947 14.6119 5.91523 13.7344 5.92414C13.3946 5.89904 13.0884 6.12461 13.0178 6.45194C12.8976 6.81716 12.8568 7.2002 12.7752 7.56543C12.6254 8.15892 12.8279 8.78471 13.299 9.18445C13.5405 9.42692 13.8352 9.61202 14.1607 9.7256C14.3443 9.7835 14.3874 9.87258 14.3625 10.0552C14.2922 10.7812 14.2332 11.5094 14.1901 12.2376C14.1425 13.0082 14.079 13.7832 14.3307 14.5381C14.3573 14.661 14.4261 14.7711 14.5257 14.8499C14.8252 15.0661 15.1594 15.2317 15.5144 15.3398C16.367 15.5625 17.0178 15.1171 17.0587 14.2531C17.0949 13.5337 17.1131 12.8122 17.1652 12.0951C17.2056 11.1794 17.327 10.2688 17.528 9.37374C17.5638 9.16977 17.723 9.00808 17.9294 8.9662C18.8737 8.71103 19.7862 8.35403 20.6505 7.9017C21.5576 7.41399 22.4419 6.89065 23.0723 6.04885C23.6025 5.40104 23.8371 4.56716 23.7209 3.74392ZM20.2356 4.3942C19.6243 4.94256 18.8765 5.32281 18.0677 5.49656C17.553 5.61014 17.4215 5.51883 17.3262 5.0044C17.2268 4.41508 17.1677 3.81989 17.1494 3.22281C17.1494 3.08028 17.1924 3.03574 17.3308 3.03797C17.5575 3.03797 17.8002 3.03797 18.036 3.03797C18.706 3.03182 19.3729 3.12722 20.0133 3.3208C20.7095 3.56131 20.782 3.90649 20.2356 4.3942Z" transform="translate(46.3125 1.1875)" id="Shape" fill="#66CC00" stroke="none" />
    <path d="M16.4256 7.16908C16.0437 6.41627 15.433 5.80824 14.684 5.43501C14.3265 5.25186 13.9138 5.2135 13.5294 5.32772C12.7353 5.54667 11.9346 5.76562 11.1405 5.98457C11.0674 6.01782 10.9817 6.00217 10.9246 5.94516C10.7283 5.77657 10.5189 5.62111 10.3182 5.4569C10.1494 5.31703 9.92784 5.26084 9.71397 5.30364C9.10108 5.40435 9.10108 5.40435 8.73852 4.89858C8.48603 4.54607 8.3846 4.51542 7.97888 4.64241C7.77548 4.71283 7.57955 4.80378 7.39405 4.91391C7.33362 4.94675 7.26888 4.9993 7.20198 4.96427C7.10487 4.91172 7.20198 4.84603 7.20198 4.78473C7.21493 4.46068 7.24298 4.13883 7.25809 3.81697C7.2732 3.49512 7.31636 3.12072 6.90632 2.91928L7.06386 2.84484C7.65097 2.61966 8.21717 2.34197 8.75579 2.01503C9.08597 1.79608 9.11403 1.65376 8.88311 1.32972C8.53839 0.856452 8.10768 0.4544 7.61417 0.145204C7.22307 -0.0841663 6.73194 -0.0385491 6.38839 0.259057C5.72107 0.853277 5.01445 1.40047 4.27348 1.89679C3.77281 2.23835 3.26998 2.57554 2.78226 2.93461C2.52113 3.1251 2.52761 3.32872 2.77147 3.53453C2.97648 3.7075 3.19013 3.86952 3.40378 4.03154C3.58544 4.18396 3.83717 4.21716 4.0512 4.11693C4.41807 3.95929 4.79142 3.82135 5.17555 3.67904C5.13671 4.33588 5.09355 4.9577 5.06334 5.58608C5.06334 5.7284 4.98564 5.77876 4.87343 5.82255C3.475 6.35897 2.0852 6.91729 0.628507 7.28512C0.104096 7.41649 0.0523026 7.47123 0.0134574 8.02079C-0.0145975 8.41052 -0.0361782 8.85718 0.35659 9.0805C0.876684 9.37827 1.43562 9.57095 2.05067 9.29945C2.66572 9.02796 3.22466 8.76084 3.81166 8.49153C4.04029 8.36697 4.28023 8.26506 4.52813 8.18719C4.55187 8.27258 4.5044 8.3098 4.4785 8.3514C3.90661 9.21625 3.3153 10.0658 2.67651 10.8803C2.2483 11.4765 1.71577 11.9878 1.10544 12.3888C1.02036 12.4444 0.971338 12.5421 0.977147 12.6445C0.982957 12.747 1.0427 12.8384 1.13349 12.8836C1.25942 12.9761 1.39471 13.0546 1.53705 13.1179C2.07873 13.3369 2.61609 13.4507 3.16639 13.1026C3.74528 12.7191 4.23737 12.2154 4.61014 11.6247C4.65762 11.5524 4.70941 11.4824 4.75905 11.4057C4.69215 12.6297 4.66193 13.8361 4.51087 15.0337C4.51087 15.1147 4.4785 15.1804 4.57777 15.2286C5.3072 15.5723 6.25243 15.5942 6.57398 14.4951C6.61559 14.3348 6.63947 14.1703 6.6452 14.0047C6.70994 12.9844 6.76821 11.9662 6.83079 10.9219C6.92446 10.9498 7.00735 11.0064 7.06818 11.0839C7.38542 11.3663 7.69834 11.6532 8.01557 11.9378C8.33281 12.2224 8.59825 12.1874 8.84859 11.8699C8.97777 11.7059 9.0892 11.5283 9.18093 11.3401C9.46799 10.8272 9.34751 10.179 8.89606 9.80741C8.50124 9.46987 8.05619 9.19792 7.57748 9.00168C6.90417 8.67326 6.87827 8.59663 7.14587 7.87847C7.2473 7.61355 7.40484 7.35738 7.27967 7.05085C7.23651 6.94356 7.33146 6.91948 7.39836 6.88883C7.89472 6.66988 8.39323 6.45093 8.88743 6.23198C9.01044 6.17505 9.06008 6.16849 9.08166 6.3327C9.34926 8.19376 9.51327 10.068 9.70102 11.9356C9.70085 12.082 9.75987 12.222 9.86429 12.323C9.96872 12.4239 10.1094 12.477 10.2535 12.4698C10.7052 12.4645 11.1409 12.2996 11.4857 12.0035C11.6131 11.8809 11.6735 11.8612 11.8051 11.975C12.0034 12.1323 12.221 12.2625 12.4526 12.3625C12.6712 12.4727 12.9235 12.4923 13.1561 12.4173C13.8542 12.2123 14.4941 11.8415 15.0228 11.3357C15.8407 10.5497 16.2464 9.5184 16.5529 8.43898C16.6822 8.01571 16.6363 7.55726 16.4256 7.16908L16.4256 7.16908ZM14.438 8.53532C14.0982 9.14793 13.6026 9.65681 13.0029 10.0088C12.6357 10.1808 12.2409 10.2839 11.8375 10.3132C11.7296 10.3307 11.7296 10.2738 11.7188 10.1993C11.6217 9.50745 11.5203 8.81558 11.4232 8.1237C11.4232 8.05801 11.3951 7.99014 11.4965 7.96168C12.0943 7.79308 12.664 7.54567 13.2467 7.33548C13.3171 7.3142 13.3894 7.30026 13.4625 7.29388C13.9475 7.31162 14.3691 7.63681 14.5157 8.10618C14.5438 8.25405 14.516 8.40724 14.438 8.53532L14.438 8.53532Z" transform="translate(148.4375 1.1875)" id="Shape" fill="#66CC00" stroke="none" />
    <path d="M10.2078 11.5608C9.89595 11.2972 9.56849 11.0522 9.22715 10.8269C8.60614 10.3972 7.96056 10.0049 7.3753 9.52232C7.25467 9.42315 7.2368 9.36145 7.33732 9.23143C7.70583 8.75553 8.02677 8.24556 8.29564 7.70864C8.68209 6.95055 9.0261 6.16601 9.02834 5.30655C9.04352 3.82052 8.49448 2.38268 7.48922 1.27589C6.67387 0.352519 5.653 -0.125694 4.4579 0.028568L3.60457 0.0748468C3.51503 0.0688617 3.42606 0.0929391 3.35215 0.143163C3.22499 0.239859 3.06511 0.284812 2.90538 0.268777C2.7811 0.267465 2.6589 0.300274 2.55243 0.363538C1.6857 0.804288 1.35509 1.54695 1.20096 2.44829C1.08033 3.15789 1.22776 3.71544 1.84877 4.11873C1.94126 4.17476 1.98499 4.28441 1.956 4.38759C1.84752 5.04825 1.69833 5.70177 1.50923 6.34452C1.44114 6.69142 1.14697 6.951 0.789931 6.9792C0.452786 7.02767 0.183788 7.28154 0.119779 7.61167C-0.0544609 8.35874 -0.117008 9.12344 0.490596 9.74931C0.629578 9.89968 0.694162 10.1029 0.66707 10.3047C0.633741 10.8849 0.569616 11.4631 0.47496 12.0368C0.342225 12.8032 0.4091 13.5904 0.669304 14.3243C0.885549 14.9337 1.44086 15.3637 2.09226 15.4262C2.62838 15.5055 3.27396 15.1661 3.20918 14.4741C3.15557 13.8351 3.12206 13.1916 3.08409 12.5503C3.05058 11.9795 2.9925 11.4065 3.28737 10.8732C3.35662 10.7454 3.41916 10.7101 3.55766 10.7829C3.80821 10.9178 4.0453 11.0757 4.26579 11.2545C5.40404 12.1665 6.48289 13.1484 7.49592 14.1943C8.28447 14.9964 9.31427 14.9744 10.0135 14.1039C10.1631 13.9188 10.2905 13.7139 10.429 13.5221C10.8442 12.9013 10.7512 12.0765 10.2078 11.5608ZM5.69321 6.09108C5.35086 6.50893 4.92603 6.85382 4.4445 7.10481C4.30726 7.17582 4.14153 7.1665 4.01336 7.08057C3.8704 7.00564 3.98432 6.88884 3.99773 6.80069C4.15856 5.71645 4.33727 4.6322 4.49587 3.54796C4.52268 3.37386 4.5897 3.32758 4.75947 3.30554C5.60386 3.21739 6.27401 3.79698 6.24274 4.60355C6.22163 5.14386 6.02945 5.66407 5.69321 6.09108L5.69321 6.09108Z" transform="translate(15.4375 1.1875)" id="Shape" fill="#66CC00" stroke="none" />
    <path d="M4.04719 11.7049C4.3713 11.8815 4.75616 11.9343 5.12112 11.8522C5.3001 11.8002 5.42795 11.6356 5.61856 11.5901C5.97654 11.4991 6.32986 11.3973 6.69016 11.315C7.42703 11.1461 8.17088 10.9988 8.9031 10.8125C9.08441 10.767 9.19598 10.7692 9.30756 10.8948C9.36457 10.9826 9.46563 11.0373 9.57572 11.0399C9.6858 11.0425 9.78973 10.9927 9.8515 10.9078C10.3164 10.4746 10.7813 10.0413 11.0138 9.44348C11.3159 8.66366 11.5833 7.87519 11.8111 7.07155C11.9771 6.57099 11.8135 6.02618 11.3926 5.67872C11.1997 5.50326 11.0045 5.32997 10.8115 5.15884C10.6933 5.03945 10.5077 5.0014 10.3466 5.06353C9.40054 5.33213 8.44749 5.58557 7.49677 5.84334L7.45957 5.80002C7.50606 5.7697 7.55256 5.74154 7.59672 5.70904C8.12485 5.25927 8.61376 4.77107 9.05884 4.24906C9.31643 3.99853 9.38454 3.62715 9.23085 3.31112C9.10674 3.04146 8.96707 2.77825 8.81244 2.52264C8.71626 2.30789 8.47606 2.18126 8.22899 2.21505C8.08054 2.22209 7.93367 2.24685 7.79198 2.2887C7.32708 2.43167 6.88542 2.58546 6.42982 2.72193C6.23293 2.80114 6.02309 2.84875 5.80917 2.86273C6.08114 2.52914 6.32056 2.21289 6.57394 1.92479C6.73051 1.76453 6.77641 1.53556 6.69249 1.33343C6.46003 0.750738 5.96724 0.406321 5.44422 0.0965622C5.10484 -0.104889 4.79801 0.0207472 4.63064 0.362998C3.80981 2.00837 2.84986 3.59031 1.75987 5.09386C1.34146 5.68088 1.22523 5.65489 2.01557 6.12711C2.61731 6.43881 3.37206 6.30579 3.81009 5.81085C4.09601 5.44911 4.36797 5.07869 4.64227 4.70828C4.69727 4.61893 4.7859 4.55178 4.89099 4.51983C5.3373 4.40069 5.77663 4.26423 6.22526 4.15592C6.45598 4.07538 6.70223 4.0407 6.94818 4.05411C6.67612 4.45093 6.33882 4.80545 5.94864 5.10469C4.45631 6.20076 2.86866 7.14736 1.03695 7.68457C0.790551 7.75822 0.537179 7.81887 0.293106 7.90118C-0.0090809 8.00082 -0.0392996 8.0853 0.0327603 8.37123C0.195476 9.02108 0.665027 9.40232 1.30427 9.6406C1.40038 9.67317 1.50713 9.66362 1.59483 9.6146C1.86912 9.4998 2.14574 9.39799 2.48977 9.25719C2.06671 10.1691 2.05509 11.0984 1.80869 11.9822C1.70408 12.3591 1.61575 12.7642 1.83891 13.1238C2.20529 13.7461 2.71204 14.287 3.32427 14.7094C3.74354 14.9826 4.21806 15.1735 4.71898 15.2704C6.60415 15.6473 8.401 15.3679 10.1374 14.6206C10.5822 14.4256 10.9085 14.0538 11.0254 13.609C11.3159 12.8053 10.9952 12.175 10.5093 11.5641C10.4257 11.4602 10.3489 11.3995 10.2536 11.5771C10.0839 11.858 9.82708 12.0845 9.51677 12.227C8.49588 12.7417 7.39084 13.0959 6.24618 13.2754C5.60183 13.4142 4.92464 13.3049 4.36797 12.9721C3.82985 12.6457 3.62105 12.0062 3.87285 11.4558C3.95654 11.5208 3.93097 11.6551 4.04719 11.7049ZM7.65716 8.68749C7.77402 8.43093 7.79929 8.14615 7.72922 7.87519C7.67575 7.65857 7.71062 7.55027 7.96167 7.49395C8.42657 7.3943 8.8659 7.24484 9.32383 7.1322C9.66089 7.04772 9.75387 7.11487 9.70273 7.42246C9.64457 7.91151 9.48678 8.38571 9.23783 8.81963C9.18304 8.93043 9.05549 8.9934 8.92634 8.97342C8.42657 8.9366 7.97329 9.13372 7.48979 9.27452C7.51257 9.07263 7.56903 8.8753 7.65716 8.68966L7.65716 8.68749ZM4.47955 8.54886C4.50512 8.45138 4.59578 8.44272 4.67016 8.42106C5.11182 8.29542 5.5558 8.17412 6.02303 8.04631C6.03488 8.22635 6.00801 8.40679 5.94399 8.57702C5.82777 8.98642 5.71154 9.39149 5.59532 9.80306C5.5817 9.89673 5.51094 9.9745 5.414 10.0023L4.0193 10.4746C4.13552 9.81822 4.30986 9.18354 4.47955 8.54886Z" transform="translate(136.5625 1.1875)" id="Shape" fill="#66CC00" stroke="none" />
    <path d="M9.03331 8.62892C8.8768 8.58768 8.71111 8.65186 8.62643 8.78653C8.28311 9.29916 7.8693 9.76356 7.39653 10.1668C7.32487 10.2366 7.25782 10.3356 7.1168 10.3221C7.15379 9.8493 7.20003 9.38321 7.22546 8.91712C7.22546 8.737 7.32487 8.67395 7.48901 8.64918C7.96293 8.57938 8.43686 8.50057 8.91078 8.42402C9.34257 8.37949 9.77109 8.30881 10.1939 8.21237C10.6562 8.07952 10.8111 7.73052 10.5846 7.31172C10.4528 7.07304 10.2609 6.8749 10.1222 6.64749C9.98275 6.42453 9.71392 6.31167 9.45175 6.36603C8.8176 6.42077 8.18904 6.52543 7.57223 6.67901C7.32487 6.7398 7.07519 6.79609 6.77927 6.86589C7.20033 6.29611 7.68664 5.77488 8.22879 5.31227C8.61171 5.01446 8.96329 4.68033 9.27837 4.3148C9.42673 4.16601 9.43668 3.93242 9.30149 3.77216C9.19976 3.63256 9.08417 3.50422 8.9732 3.37137C8.79665 3.1887 8.64654 2.98341 8.52702 2.76118C8.29584 2.24556 7.96987 2.11271 7.42659 2.28609C7.14822 2.40277 6.85237 2.475 6.5504 2.49999C6.60126 2.31761 6.65444 2.16225 6.68911 2.00464C6.75847 1.68716 6.84632 1.36517 6.63825 1.06571C6.43019 0.766241 6.22906 0.511808 6.02331 0.232606C5.88143 0.0332291 5.62052 -0.0496331 5.38524 0.0299597C5.12641 0.0794662 4.92171 0.272657 4.86277 0.523066C4.71911 1.07118 4.52089 1.60434 4.27094 2.11496C3.67528 3.25253 2.9435 4.31744 2.09088 5.2875C1.77017 5.73348 1.81355 6.33718 2.19491 6.7353C2.34714 6.85911 2.55359 6.89898 2.74282 6.84113L3.46873 6.66775L5.03847 6.31199C4.79623 6.66373 4.533 7.0013 4.25013 7.32297C4.18735 7.40122 4.09485 7.45154 3.99352 7.46258C2.85378 7.63145 1.74179 7.94893 0.597434 8.10429C0.151251 8.16508 -0.151599 8.83156 0.079584 9.20758C0.258447 9.44804 0.467348 9.66587 0.701467 9.85605C0.783434 9.94305 0.910767 9.97405 1.02512 9.93486C1.26368 9.85946 1.51036 9.8111 1.76029 9.79076C1.67933 9.96644 1.60984 10.1469 1.55222 10.3311C1.48055 10.6216 1.47131 10.9526 1.75566 11.1125C2.24808 11.3872 2.73126 11.6979 3.30228 11.8127C3.85354 11.8739 4.3717 11.5451 4.5368 11.0292C4.57548 10.9337 4.57271 10.8271 4.52913 10.7337C4.48554 10.6403 4.40487 10.5681 4.30561 10.5338C3.71147 10.2658 3.10577 10.0272 2.5047 9.7795C2.43303 9.75023 2.31744 9.75923 2.29663 9.6399C3.31615 9.44851 4.29405 9.11527 5.31589 8.9509C5.54707 8.91487 5.56325 8.97567 5.54707 9.1558C5.51701 9.68493 5.44997 10.2118 5.41992 10.7319C5.3575 11.8735 5.16099 13.0016 5.02228 14.1364C4.94137 14.8119 4.60615 15.278 3.90104 15.4446L3.65599 15.4941C3.86499 15.8176 4.11597 16.1135 4.40271 16.3745C4.73099 16.674 5.00841 16.6965 5.40836 16.4871C5.54707 16.415 5.68115 16.3362 5.81986 16.2619C6.41169 15.9535 6.62901 15.4108 6.69605 14.8164C6.81395 13.7626 6.881 12.7021 6.97809 11.6461C7.01046 11.2813 7.03589 11.2768 7.36648 11.4772C7.70012 11.6647 8.1141 11.6517 8.43455 11.4434C8.7958 11.1637 9.18913 10.9257 9.60665 10.7342C9.95474 10.5481 10.2625 10.2981 10.5129 9.99791C10.6121 9.92483 10.6715 9.81157 10.6742 9.69045C10.6769 9.56933 10.6226 9.45366 10.5268 9.37646C10.1401 8.95707 9.6085 8.69098 9.03331 8.62892ZM6.69836 4.25401C6.51096 4.59973 6.16926 4.84101 5.77363 4.90698C5.46384 4.95877 5.15174 4.98804 4.8489 5.02407C4.7726 5.01056 4.694 5.06234 4.65932 4.98579C4.62465 4.90923 4.70325 4.87321 4.73793 4.82592C4.8304 4.70433 4.93212 4.58725 5.02691 4.46566C5.13477 4.28658 5.33949 4.18469 5.55169 4.20447C5.86841 4.21798 6.19207 4.06938 6.51573 4.00408C6.58739 3.99057 6.69143 3.91852 6.74691 4.00408C6.80239 4.08964 6.74229 4.1752 6.69605 4.25401L6.69836 4.25401Z" transform="translate(125.875 0)" id="Shape" fill="#66CC00" stroke="none" />
  </g>
</svg>