<?xml version="1.0" encoding="utf-8"?>
<svg width="21px" height="21px" viewBox="0 0 21 21" version="1.1" xmlns:xlink="http://www.w3.org/1999/xlink" xmlns="http://www.w3.org/2000/svg">
  <g id="share">
    <path d="M20.3404 8.90311L11.9849 0.547623C11.6217 0.18425 11.2505 0 10.8818 0C10.3702 0 9.77277 0.3834 9.77277 1.46358L9.77277 6.61537C7.22243 6.78905 4.84962 7.87276 3.0366 9.70468C1.07842 11.6832 0 14.306 0 17.0897C0 18.2888 0.201233 19.4664 0.598412 20.5898C0.685249 20.8356 0.917725 21 1.1784 21C1.43923 21 1.67155 20.8356 1.75854 20.5898C2.98004 17.134 6.15282 14.7251 9.77277 14.4391L9.77277 19.5363C9.77277 20.6164 10.3701 20.9998 10.8818 20.9998C11.2505 20.9998 11.6215 20.8158 11.9847 20.4525L20.3405 12.0967C20.7658 11.6713 21 11.1043 21 10.4998C20.9998 9.8955 20.7656 9.32833 20.3404 8.90311L20.3404 8.90311ZM19.4704 11.2267L11.1148 19.5826C11.0753 19.6218 11.0403 19.6532 11.0098 19.678C11.0056 19.639 11.0031 19.592 11.0031 19.5364L11.0031 13.7958C11.0031 13.6316 10.9374 13.474 10.8204 13.3584C10.7052 13.2445 10.5498 13.1806 10.3878 13.1806C10.3856 13.1806 10.3834 13.1808 10.3811 13.1808C8.18999 13.2051 6.09755 13.8977 4.33003 15.1835C3.09187 16.0842 2.07914 17.2246 1.34278 18.5365C1.26812 18.0602 1.23047 17.5771 1.23047 17.0897C1.23047 12.0355 5.34148 7.87788 10.3947 7.82165C10.7318 7.81796 11.0032 7.54367 11.0032 7.20641L11.0032 1.46358C11.0032 1.40799 11.0058 1.36121 11.0098 1.32195C11.0403 1.34679 11.0753 1.37819 11.1148 1.4176L19.4704 9.77325C19.6633 9.96616 19.7695 10.2241 19.7695 10.5C19.7694 10.7757 19.6631 11.0338 19.4704 11.2267Z" id="Shape" fill="#6EC724" stroke="none" />
  </g>
</svg>