<?xml version="1.0" encoding="utf-8"?>
<svg width="234px" height="52px" viewBox="0 0 234 52" version="1.1" xmlns:xlink="http://www.w3.org/1999/xlink" xmlns="http://www.w3.org/2000/svg">
  <defs>
    <path d="M24.999 0L207.001 0Q207.615 0 208.228 0.0301124Q208.841 0.0602248 209.451 0.120377Q210.062 0.180529 210.669 0.270576Q211.276 0.360624 211.878 0.480349Q212.48 0.600074 213.075 0.749189Q213.671 0.898303 214.258 1.07645Q214.845 1.25459 215.423 1.46134Q216.001 1.66809 216.568 1.90294Q217.135 2.13778 217.689 2.40017Q218.244 2.66256 218.785 2.95185Q219.327 3.24114 219.853 3.55664Q220.379 3.87214 220.89 4.21309Q221.4 4.55404 221.893 4.91961Q222.386 5.28519 222.86 5.67451Q223.335 6.06383 223.789 6.47596Q224.244 6.88809 224.678 7.32204Q225.112 7.75598 225.524 8.2107Q225.936 8.66541 226.325 9.1398Q226.715 9.61419 227.08 10.1071Q227.446 10.6 227.787 11.1103Q228.128 11.6206 228.443 12.1469Q228.759 12.6733 229.048 13.2146Q229.337 13.7558 229.6 14.3105Q229.862 14.8653 230.097 15.4323Q230.332 15.9993 230.539 16.5771Q230.745 17.1549 230.924 17.7422Q231.102 18.3294 231.251 18.9247Q231.4 19.52 231.52 20.1219Q231.639 20.7238 231.729 21.3309Q231.819 21.9379 231.88 22.5487Q231.94 23.1594 231.97 23.7724Q232 24.3853 232 24.999L232 25.001Q232 25.6147 231.97 26.2276Q231.94 26.8406 231.88 27.4513Q231.819 28.0621 231.729 28.6691Q231.639 29.2762 231.52 29.8781Q231.4 30.48 231.251 31.0753Q231.102 31.6706 230.924 32.2578Q230.745 32.8451 230.539 33.4229Q230.332 34.0007 230.097 34.5677Q229.862 35.1347 229.6 35.6894Q229.337 36.2442 229.048 36.7854Q228.759 37.3267 228.443 37.8531Q228.128 38.3794 227.787 38.8897Q227.446 39.4 227.08 39.8929Q226.715 40.3858 226.325 40.8602Q225.936 41.3346 225.524 41.7893Q225.112 42.244 224.678 42.678Q224.244 43.1119 223.789 43.524Q223.335 43.9362 222.86 44.3255Q222.386 44.7148 221.893 45.0804Q221.4 45.446 220.89 45.7869Q220.379 46.1279 219.853 46.4434Q219.327 46.7589 218.785 47.0481Q218.244 47.3374 217.689 47.5998Q217.135 47.8622 216.568 48.0971Q216.001 48.3319 215.423 48.5387Q214.845 48.7454 214.258 48.9235Q213.671 49.1017 213.075 49.2508Q212.48 49.3999 211.878 49.5196Q211.276 49.6394 210.669 49.7294Q210.062 49.8195 209.451 49.8796Q208.841 49.9398 208.228 49.9699Q207.615 50 207.001 50L24.999 50Q24.3853 50 23.7724 49.9699Q23.1594 49.9398 22.5487 49.8796Q21.9379 49.8195 21.3309 49.7294Q20.7238 49.6394 20.1219 49.5196Q19.52 49.3999 18.9247 49.2508Q18.3294 49.1017 17.7422 48.9235Q17.1549 48.7454 16.5771 48.5386Q15.9993 48.3319 15.4323 48.0971Q14.8653 47.8622 14.3105 47.5998Q13.7558 47.3374 13.2146 47.0481Q12.6733 46.7589 12.1469 46.4433Q11.6206 46.1278 11.1103 45.7869Q10.6 45.4459 10.1071 45.0804Q9.61419 44.7148 9.1398 44.3255Q8.66541 43.9362 8.2107 43.524Q7.75598 43.1119 7.32204 42.678Q6.88809 42.244 6.47596 41.7893Q6.06383 41.3346 5.67451 40.8602Q5.28519 40.3858 4.91961 39.8929Q4.55404 39.4 4.21309 38.8897Q3.87214 38.3794 3.55664 37.8531Q3.24114 37.3267 2.95185 36.7854Q2.66256 36.2442 2.40017 35.6894Q2.13778 35.1347 1.90294 34.5677Q1.66809 34.0007 1.46134 33.4229Q1.25459 32.8451 1.07645 32.2578Q0.898303 31.6706 0.749189 31.0753Q0.600074 30.48 0.480349 29.8781Q0.360624 29.2762 0.270576 28.6691Q0.180529 28.0621 0.120377 27.4513Q0.0602248 26.8406 0.0301124 26.2276Q0 25.6147 0 25.001L0 24.999Q0 24.3853 0.0301124 23.7724Q0.0602248 23.1594 0.120377 22.5487Q0.180529 21.9379 0.270576 21.3309Q0.360624 20.7238 0.480349 20.1219Q0.600074 19.52 0.749189 18.9247Q0.898303 18.3294 1.07645 17.7422Q1.25459 17.1549 1.46134 16.5771Q1.66809 15.9993 1.90294 15.4323Q2.13778 14.8653 2.40017 14.3105Q2.66256 13.7558 2.95185 13.2146Q3.24114 12.6733 3.55664 12.1469Q3.87214 11.6206 4.21309 11.1103Q4.55404 10.6 4.91961 10.1071Q5.28519 9.61419 5.67451 9.1398Q6.06383 8.66541 6.47596 8.2107Q6.88809 7.75598 7.32204 7.32204Q7.75598 6.88809 8.2107 6.47596Q8.66541 6.06383 9.1398 5.67451Q9.61419 5.28519 10.1071 4.91961Q10.6 4.55404 11.1103 4.21309Q11.6206 3.87214 12.1469 3.55664Q12.6733 3.24114 13.2146 2.95185Q13.7558 2.66256 14.3105 2.40017Q14.8653 2.13778 15.4323 1.90294Q15.9993 1.66809 16.5771 1.46134Q17.1549 1.25459 17.7422 1.07645Q18.3294 0.898303 18.9247 0.749189Q19.52 0.600074 20.1219 0.480349Q20.7238 0.360624 21.3309 0.270576Q21.9379 0.180529 22.5487 0.120377Q23.1594 0.0602248 23.7724 0.0301124Q24.3853 0 24.999 0L24.999 0Z" id="path_1" />
    <path d="M6.5 14.1304C10.0899 14.1304 13 10.9672 13 7.06522C13 3.16321 10.0899 0 6.5 0C2.91015 0 0 3.16321 0 7.06522C0 10.9672 2.91015 14.1304 6.5 14.1304Z" transform="translate(188 16.304443)" id="path_2" />
    <clipPath id="clip_1">
      <use xlink:href="#path_1" />
    </clipPath>
    <clipPath id="clip_2">
      <use xlink:href="#path_2" />
    </clipPath>
  </defs>
  <g id="Group" transform="translate(1 1)">
    <g id="subscription">
      <g id="Rectangle-Copy-4">
        <use stroke="none" fill="#FFFFFF" xlink:href="#path_1" fill-rule="evenodd" />
        <g clip-path="url(#clip_1)">
          <use xlink:href="#path_1" fill="none" stroke="#8FD156" stroke-width="4" />
        </g>
      </g>
      <path d="M0 0L8 6.52174" transform="translate(199 27.173914)" id="Path-4-Copy-5" fill="none" fill-rule="evenodd" stroke="#8FD156" stroke-width="2" />
    </g>
    <path d="M147.08 4.021L142.656 4.021L142.656 0.46875L147.08 0.46875L147.08 4.021ZM146.304 3.30322L146.304 1.18652L143.454 1.18652L143.454 3.30322L146.304 3.30322ZM140.766 4.021L136.416 4.021L136.416 0.46875L140.766 0.46875L140.766 4.021ZM140.005 3.30322L140.005 1.18652L137.185 1.18652L137.185 3.30322L140.005 3.30322ZM148.384 8.80371L147.966 9.52881L147.051 9.17725L147.051 13.2422L146.304 13.2422L146.304 12.4072L143.345 12.4072L143.345 13.2422L142.568 13.2422L142.568 8.64258L145.908 8.64258C144.516 7.93945 143.428 7.16797 142.641 6.32813L140.884 6.32813C140.083 7.24121 139.065 8.0127 137.829 8.64258L140.935 8.64258L140.935 13.2422L140.151 13.2422L140.151 12.4072L137.214 12.4072L137.214 13.2422L136.416 13.2422L136.416 9.24316C136.133 9.36035 135.832 9.46045 135.515 9.54346L135.171 8.84766C137.304 8.18359 138.874 7.34375 139.88 6.32813L135.288 6.32813L135.288 5.61035L140.525 5.61035C140.862 5.16602 141.157 4.70703 141.411 4.2334L142.114 4.43848C141.953 4.8584 141.733 5.24902 141.455 5.61035L148.164 5.61035L148.164 6.32813L143.755 6.32813C144.824 7.36328 146.367 8.18848 148.384 8.80371L148.384 8.80371ZM146.304 11.6382L146.304 9.36035L143.345 9.36035L143.345 11.6382L146.304 11.6382ZM140.151 11.6382L140.151 9.36035L137.214 9.36035L137.214 11.6382L140.151 11.6382ZM146.223 4.89258L145.776 5.47852C145.386 5.24414 144.961 5.04883 144.502 4.89258L144.89 4.27734C145.451 4.47266 145.896 4.67773 146.223 4.89258L146.223 4.89258ZM121.918 3.49365L120.702 3.49365L120.702 6.04248C121.122 5.77393 121.442 5.55908 121.662 5.39795L121.735 6.22559C121.188 6.60645 120.844 6.84082 120.702 6.92871L120.702 12.2095C120.702 12.9028 120.273 13.2495 119.413 13.2495C119.213 13.2495 118.957 13.2422 118.644 13.2275L118.41 12.4658C118.986 12.4854 119.399 12.4951 119.648 12.4951C119.858 12.4951 119.963 12.3706 119.963 12.1216L119.963 7.38281C119.567 7.60742 119.103 7.85645 118.571 8.12988L118.315 7.42676C119.028 7.06055 119.577 6.75537 119.963 6.51123L119.963 3.49365L118.439 3.49365L118.439 2.76123L119.963 2.76123L119.963 0.102539L120.702 0.102539L120.702 2.76123L121.918 2.76123L121.918 3.49365ZM126.225 4.29199L123.654 4.29199C123.327 4.29199 123.068 4.19067 122.878 3.98804C122.687 3.7854 122.592 3.53027 122.592 3.22266L122.592 0.117188L123.324 0.117188L123.324 1.21582L126.042 1.21582L126.042 1.93359L123.324 1.93359L123.324 3.20801C123.324 3.46191 123.471 3.58887 123.764 3.58887L126.225 3.58887L126.225 4.29199ZM131.469 12.1948L131.337 12.9492C131.064 12.9688 130.802 12.9785 130.553 12.9785C128.766 12.9785 127.538 12.3828 126.869 11.1914C126.396 12.085 125.9 12.7905 125.383 13.3081L124.811 12.8394C126.091 11.6968 126.72 9.95117 126.701 7.60254L127.448 7.60254C127.419 8.6377 127.326 9.51904 127.17 10.2466C127.433 10.9497 127.821 11.4307 128.334 11.6895L128.334 5.50781L126.445 5.50781L126.445 4.83398L129.235 4.83398C128.493 3.97949 127.719 3.25928 126.913 2.67334L127.419 2.146C127.961 2.58545 128.361 2.91992 128.62 3.14941C129.045 2.76367 129.594 2.11426 130.268 1.20117L126.73 1.20117L126.73 0.512695L131.11 0.512695L131.11 1.20117C130.509 2.12891 129.845 2.93945 129.118 3.63281C129.333 3.84766 129.562 4.11133 129.806 4.42383L129.418 4.83398L131.293 4.83398C131.127 5.9375 130.912 6.79199 130.649 7.39746L130.019 7.06787C130.248 6.40869 130.387 5.88867 130.436 5.50781L129.089 5.50781L129.089 8.23242L130.883 8.23242L130.883 8.94287L129.089 8.94287L129.089 12.0044C129.504 12.1704 130.297 12.2339 131.469 12.1948L131.469 12.1948ZM126.1 8.78906L124.328 8.78906C124.284 9.08691 124.24 9.30176 124.196 9.43359C124.772 9.99023 125.226 10.4858 125.558 10.9204L125.038 11.4185C124.701 10.9985 124.34 10.5981 123.954 10.2173C123.608 11.2622 122.853 12.2705 121.691 13.2422L121.149 12.7368C122.536 11.6724 123.342 10.3564 123.566 8.78906L121.72 8.78906L121.72 8.11523L123.654 8.11523C123.688 7.69043 123.715 7.11182 123.735 6.37939L122.995 6.37939C122.77 6.73584 122.48 7.12402 122.123 7.54395L121.508 7.14111C122.172 6.40381 122.668 5.5542 122.995 4.59229L123.639 4.81934C123.62 4.95605 123.529 5.23926 123.368 5.66895L125.91 5.66895L125.91 6.37939L124.467 6.37939C124.467 6.94092 124.443 7.51953 124.394 8.11523L126.1 8.11523L126.1 8.78906ZM114.422 2.05811L112.276 2.05811L112.276 2.90771L111.529 2.90771L111.529 2.05811L110.416 2.05811L110.416 1.34766L111.529 1.34766L111.529 0.102539L112.276 0.102539L112.276 1.34766L114.422 1.34766L114.422 2.05811ZM109.845 2.05811L108.856 2.05811L108.856 2.90771L108.058 2.90771L108.058 2.05811L105.853 2.05811L105.853 1.34766L108.058 1.34766L108.058 0.102539L108.856 0.102539L108.856 1.34766L109.845 1.34766L109.845 2.05811ZM106.109 6.73828L105.524 7.229C105.05 6.40381 104.676 5.81055 104.403 5.44922L104.403 13.2642L103.634 13.2642L103.634 5.8667C103.136 7.07764 102.552 8.1665 101.883 9.1333L101.356 8.54736C102.264 7.2583 103.019 5.7251 103.619 3.94775L101.583 3.94775L101.583 3.20801L103.634 3.20801L103.634 0.102539L104.403 0.102539L104.403 3.20801L105.904 3.20801L105.904 3.94775L104.403 3.94775L104.403 4.27734C105.067 5.09766 105.636 5.91797 106.109 6.73828L106.109 6.73828ZM114.349 10.144L110.043 10.144C109.618 11.731 108.258 12.771 105.963 13.2642L105.524 12.5684C107.555 12.2021 108.8 11.394 109.259 10.144L105.677 10.144L105.677 9.41895L109.427 9.41895C109.525 8.87695 109.574 8.44238 109.574 8.11523L106.849 8.11523L106.849 3.479L113.463 3.479L113.463 8.11523L110.358 8.11523C110.343 8.48633 110.296 8.9209 110.218 9.41895L114.349 9.41895L114.349 10.144ZM112.723 5.39795L112.723 4.18945L107.582 4.18945L107.582 5.39795L112.723 5.39795ZM112.723 7.41211L112.723 6.09375L107.582 6.09375L107.582 7.41211L112.723 7.41211ZM114.54 12.6123L114.064 13.2275C113.15 12.5586 111.974 11.8896 110.533 11.2207L111.031 10.6201C112.34 11.2256 113.509 11.8896 114.54 12.6123L114.54 12.6123ZM89.4805 3.49365L87.5322 3.49365L87.5322 6.49658L88.9678 5.91064L89.1509 6.67236C88.4624 6.9751 87.9229 7.19727 87.5322 7.33887L87.5322 11.9531C87.5322 12.4414 87.426 12.7747 87.2136 12.9529C87.0012 13.1311 86.5386 13.2202 85.8257 13.2202C85.5669 13.2202 85.3301 13.208 85.1152 13.1836L84.8296 12.3926C85.5229 12.4219 86.0088 12.4365 86.2871 12.4365C86.4092 12.4365 86.519 12.3865 86.6167 12.2864C86.7144 12.1863 86.7632 12.0703 86.7632 11.9385L86.7632 7.63916C86.2163 7.87842 85.5229 8.13232 84.6831 8.40088L84.4414 7.63916C85.3398 7.36084 86.1138 7.08496 86.7632 6.81152L86.7632 3.49365L84.5879 3.49365L84.5879 2.73193L86.7632 2.73193L86.7632 0.13916L87.5322 0.13916L87.5322 2.73193L89.4805 2.73193L89.4805 3.49365ZM97.4932 5.52246L95.9917 5.52246C95.2104 5.52246 94.8198 5.14648 94.8198 4.39453L94.8198 1.23047L91.8389 1.23047C91.7803 3.28125 91.165 4.81689 89.9932 5.8374L89.3633 5.28076C89.8857 4.89014 90.2983 4.3335 90.6011 3.61084C90.9038 2.88818 91.0552 1.84082 91.0552 0.46875L95.6182 0.46875L95.6182 4.39453C95.6182 4.44824 95.6536 4.51416 95.7244 4.59229C95.7952 4.67041 95.8599 4.70947 95.9185 4.70947L97.4932 4.70947L97.4932 5.52246ZM97.7495 12.5391L97.2808 13.2935C95.7183 12.7466 94.4487 12.1045 93.4722 11.3672C92.3784 12.1289 90.8843 12.7759 88.9897 13.3081L88.5356 12.5977C90.4595 12.0898 91.8901 11.5063 92.8276 10.8472C91.6216 9.70459 90.8208 8.49854 90.4253 7.229L89.9346 7.229L89.9346 6.42334L96.4897 6.42334C96.3628 8.11279 95.5815 9.59229 94.146 10.8618C95.0786 11.4917 96.2798 12.0508 97.7495 12.5391L97.7495 12.5391ZM95.5229 7.229L91.2969 7.229C91.7559 8.51318 92.4956 9.55322 93.5161 10.3491C94.5757 9.47998 95.2446 8.43994 95.5229 7.229L95.5229 7.229ZM72.8515 0.388184C71.9677 3.11768 70.3783 5.30762 68.0834 6.95801L67.4828 6.35742C69.685 4.86328 71.2133 2.7832 72.0678 0.117188L72.8515 0.388184ZM80.7836 6.24023L80.2782 6.89941C78.4813 5.72754 77.0458 3.79883 75.9716 1.11328L74.9682 1.11328L74.9682 0.300293L76.5868 0.300293C77.4657 3.01025 78.8646 4.99023 80.7836 6.24023L80.7836 6.24023ZM79.663 12.9639L78.9599 13.3667C78.6474 12.5952 78.3373 11.9604 78.0297 11.4624C75.1977 12.1948 72.3827 12.6831 69.5849 12.9272L69.3578 12.1655C70.8861 10.3687 72.3461 7.79785 73.7377 4.45313L74.4994 4.78271C73.2348 7.78564 71.9115 10.2026 70.5297 12.0337C72.4633 11.897 74.8314 11.4722 77.6342 10.7593C77.185 9.96338 76.5746 9.03809 75.8031 7.9834L76.4989 7.57324C77.8856 9.48242 78.9403 11.2793 79.663 12.9639L79.663 12.9639ZM63.034 13.1982L62.221 13.1982L62.221 12.1948L52.304 12.1948L52.304 13.2275L51.5276 13.2275L51.5276 0.498047L63.034 0.498047L63.034 13.1982ZM62.221 11.4038L62.221 1.27441L59.3133 1.27441L59.3133 7.32422C59.3133 7.50977 59.4231 7.60254 59.6429 7.60254L61.6204 7.60254L61.6204 8.41553L59.533 8.41553C59.2352 8.41553 58.991 8.31543 58.8006 8.11523C58.6102 7.91504 58.5149 7.65625 58.5149 7.33887L58.5149 1.27441L56.0394 1.27441L56.0394 3.36182C56.0394 4.88037 55.8404 6.13159 55.4424 7.11548C55.0445 8.09937 54.4134 8.98682 53.5491 9.77783L52.8753 9.27246C53.6712 8.56934 54.2632 7.76733 54.6514 6.86646C55.0396 5.96558 55.2337 4.83154 55.2337 3.46436L55.2337 1.27441L52.304 1.27441L52.304 11.4038L62.221 11.4038ZM46.9104 2.56348L42.904 2.56348C42.2399 3.71582 41.4709 4.78271 40.5969 5.76416C41.4611 5.70068 42.4963 5.57861 43.7023 5.39795C44.1174 4.80713 44.4372 4.28223 44.6618 3.82324L45.3649 4.15283C43.9733 6.98486 41.7834 8.94531 38.7951 10.0342L38.363 9.36035C40.4187 8.6084 41.9982 7.56348 43.1018 6.22559C41.51 6.42578 40.2697 6.55518 39.3811 6.61377L39.1394 5.8374C39.7058 5.80811 40.6555 4.7168 41.9885 2.56348L38.7365 2.56348L38.7365 1.80176L42.6184 1.80176C42.4377 1.42578 42.1594 0.93506 41.7834 0.32959L42.5305 0.0439453C42.8723 0.581055 43.1921 1.16699 43.4899 1.80176L46.9104 1.80176L46.9104 2.56348ZM38.7512 6.67236L38.1506 7.229C37.7551 6.45752 37.3742 5.82764 37.008 5.33936L37.008 13.2275L36.2463 13.2275L36.2463 5.68359C35.6359 7.06543 34.9768 8.21533 34.2687 9.1333L33.7414 8.48877C34.6936 7.2583 35.4895 5.74463 36.1291 3.94775L34.1003 3.94775L34.1003 3.20801L36.2463 3.20801L36.2463 0.0878906L37.008 0.0878906L37.008 3.20801L38.6926 3.20801L38.6926 3.94775L37.008 3.94775L37.008 4.10889C37.5744 4.80225 38.1555 5.65674 38.7512 6.67236L38.7512 6.67236ZM46.9836 12.6782L46.4343 13.2642C45.4626 12.2632 44.4274 11.377 43.3288 10.6055C41.7761 11.8262 40.1745 12.7051 38.5241 13.2422L38.092 12.6123C41.7102 11.3574 44.3396 9.1748 45.9802 6.06445L46.7126 6.37939C45.9313 7.80518 45.0036 9.02832 43.9294 10.0488C45.155 10.9619 46.173 11.8384 46.9836 12.6782L46.9836 12.6782ZM29.8785 4.12354L28.8092 4.12354L28.8092 6.25488L25.3888 6.25488L25.3888 7.5L29.1095 7.5L29.1095 8.23242L25.3888 8.23242L25.3888 9.46289L29.6222 9.46289L29.6222 10.2026L25.3888 10.2026L25.3888 11.6895L24.6417 11.6895L24.6417 10.2026L20.921 10.2026L20.921 9.46289L24.6417 9.46289L24.6417 8.23242L21.4923 8.23242L21.4923 7.5L24.6417 7.5L24.6417 6.25488L21.7779 6.25488L21.7779 5.50781L24.6417 5.50781L24.6417 4.12354L20.9356 4.12354L20.9356 3.36182L24.6417 3.36182L24.6417 2.05811L21.7926 2.05811L21.7926 1.31836L24.6417 1.31836L24.6417 0.197754L25.3888 0.197754L25.3888 1.31836L28.8092 1.31836L28.8092 3.36182L29.8785 3.36182L29.8785 4.12354ZM28.0475 3.36182L28.0475 2.0874L25.3888 2.0874L25.3888 3.36182L28.0475 3.36182ZM28.0475 5.50781L28.0475 4.12354L25.3888 4.12354L25.3888 5.50781L28.0475 5.50781ZM29.9957 12.2534L29.8126 13.0518C28.9093 13.0762 28.0499 13.0884 27.2345 13.0884C25.4718 13.0884 24.2157 13.0432 23.4662 12.9529C22.7167 12.8625 21.9769 12.6892 21.2469 12.4329C20.5169 12.1765 19.8687 11.7578 19.3023 11.1768C18.5895 12.0752 17.9132 12.7759 17.2735 13.2788L16.7389 12.6636C17.4859 12.0776 18.15 11.3867 18.7311 10.5908C18.1744 9.83887 17.7057 8.85498 17.3248 7.63916L18.0279 7.35352C18.3111 8.41309 18.6847 9.24805 19.1485 9.8584C19.6759 8.76465 19.9713 7.48291 20.0348 6.01318L17.2589 6.01318L17.2589 5.31006C18.1866 4.14307 19.1119 2.79785 20.0348 1.27441L16.9586 1.27441L16.9586 0.527344L20.8771 0.527344L20.8771 1.27441C19.964 2.8125 19.0875 4.13818 18.2477 5.25146L20.8478 5.25146C20.7501 7.4585 20.3644 9.20898 19.6905 10.5029C20.1642 10.9863 20.6976 11.3647 21.2909 11.6382C21.8841 11.9116 22.5177 12.0911 23.1915 12.1765C23.8653 12.262 25.1935 12.3047 27.1759 12.3047C28.1622 12.3047 29.1021 12.2876 29.9957 12.2534L29.9957 12.2534ZM4.90723 8.48877L4.2041 8.74512C4.17969 8.5791 4.1333 8.37402 4.06494 8.12988C2.88818 8.49609 1.64307 8.81592 0.32959 9.08936L0.124512 8.37158C1.05713 7.32666 1.90186 6.15723 2.65869 4.86328C1.8042 5.01953 1.0376 5.12451 0.358887 5.17822L0.197754 4.50439C1.02783 3.31787 1.78711 1.81641 2.47559 0L3.16406 0.32959C2.46094 2.05322 1.78223 3.39355 1.12793 4.35059C1.71875 4.29199 2.37305 4.19678 3.09082 4.06494C3.46191 3.45459 3.79639 2.80518 4.09424 2.1167L4.75342 2.46094C3.74756 4.57031 2.54395 6.47461 1.14258 8.17383C2.04102 7.9834 2.94678 7.74414 3.85986 7.45606C3.7915 7.14355 3.66455 6.78467 3.479 6.37939L4.15283 6.15234C4.43603 6.82129 4.6875 7.6001 4.90723 8.48877L4.90723 8.48877ZM13.0957 1.58936L9.22852 1.58936L9.22852 2.3877L12.5537 2.3877L12.5537 3.00293L5.26611 3.00293L5.26611 2.3877L8.48877 2.3877L8.48877 1.58936L4.68018 1.58936L4.68018 0.959473L8.48877 0.959473L8.48877 0.13916L9.22852 0.13916L9.22852 0.959473L13.0957 0.959473L13.0957 1.58936ZM12.7075 5.76416L4.96582 5.76416L4.96582 3.69141L12.7075 3.69141L12.7075 5.76416ZM11.9678 5.30664L11.9678 4.30664L10.3491 4.30664L10.3491 5.30664L11.9678 5.30664ZM9.646 5.30664L9.646 4.30664L7.9834 4.30664L7.9834 5.30664L9.646 5.30664ZM7.2583 5.30664L7.2583 4.30664L5.66895 4.30664L5.66895 5.30664L7.2583 5.30664ZM12.063 11.1328L7.72705 11.1328L8.12988 11.6235C7.02148 12.3315 5.92285 12.8784 4.83398 13.2642L4.35059 12.7075C5.4248 12.312 6.49414 11.7871 7.55859 11.1328L5.66895 11.1328L5.66895 6.43799L12.063 6.43799L12.063 11.1328ZM11.3379 8.08252L11.3379 7.08252L6.40869 7.08252L6.40869 8.08252L11.3379 8.08252ZM11.3379 9.40088L11.3379 8.40088L6.40869 8.40088L6.40869 9.40088L11.3379 9.40088ZM11.3379 10.7632L11.3379 9.76318L6.40869 9.76318L6.40869 10.7632L11.3379 10.7632ZM4.87793 11.4624L4.2041 11.6895C4.0918 11.0059 3.86475 10.2539 3.52295 9.43359L4.15283 9.21387C4.50928 9.96582 4.75098 10.7153 4.87793 11.4624L4.87793 11.4624ZM1.51611 9.70459C1.36475 10.8276 1.09375 12.002 0.703125 13.2275L0 12.9932C0.356445 11.9873 0.627441 10.8374 0.812988 9.54346L1.51611 9.70459ZM3.13477 12.7075L2.40234 12.8833C2.41699 11.936 2.32666 10.8911 2.13135 9.74854L2.79053 9.6167C2.99561 10.7349 3.11035 11.7651 3.13477 12.7075L3.13477 12.7075ZM13.125 12.6782L12.7075 13.2935C11.814 12.8198 10.7935 12.3999 9.646 12.0337L10.0781 11.4624C11.1426 11.7651 12.1582 12.1704 13.125 12.6782L13.125 12.6782Z" transform="translate(28.98877 16.467773)" id="續建核四公投模擬器" fill="#000000" stroke="none" />
    <g id="Oval">
      <g clip-path="url(#clip_2)">
        <use xlink:href="#path_2" fill="none" stroke="#8FD156" stroke-width="4" />
      </g>
    </g>
  </g>
</svg>